<svg width="232" height="203" viewBox="0 0 232 203" fill="none" xmlns="http://www.w3.org/2000/svg">
<g filter="url(#filter0_i_1800_3368)">
<path fill-rule="evenodd" clip-rule="evenodd" d="M230.416 138.201C228.752 132.521 227.113 129.243 222.455 122.28C220.666 119.604 219.268 116.842 219.349 116.14C219.538 114.512 218.143 111.863 217.024 111.726C216.551 111.668 215.613 110.672 214.939 109.514C214.266 108.356 211.973 104.946 209.846 101.937C207.718 98.9275 205.874 95.6354 205.748 94.6216C205.429 92.0602 204.663 91.0718 202.821 90.8458C201.205 90.6475 200.178 89.6119 191.437 79.3624C188.887 76.3716 185.69 73.184 184.332 72.2781C182.975 71.3722 181.914 70.2291 181.974 69.7382C182.035 69.2468 181.471 68.3905 180.722 67.8342C179.973 67.2779 179.549 66.4686 179.779 66.0356C180.049 65.5284 178.503 64.0527 175.427 61.8809C172.803 60.028 169.379 57.1123 167.817 55.4011C166.255 53.6894 164.182 51.7504 163.211 51.0909C162.239 50.4313 161.062 49.4673 160.597 48.9483C158.679 46.8114 149.52 41.2866 146.628 40.5237C143.781 39.7712 141.668 38.3413 136.208 33.4714C135.347 32.7043 132.638 31.3921 130.186 30.5548C124.564 28.6357 121.34 26.567 119.149 23.4742C118.202 22.137 117.06 20.9978 116.61 20.9426C116.16 20.8874 115.215 20.0538 114.509 19.0901C113.803 18.1263 112.802 17.2858 112.284 17.2223C111.766 17.1588 109.89 15.4933 108.115 13.5213C105.431 10.5396 104.476 9.88527 102.443 9.63584C100.998 9.45851 99.5553 8.82542 98.9149 8.08661C98.2544 7.32491 96.656 6.64145 94.8207 6.33526C93.1641 6.0593 90.0136 4.83009 87.8197 3.60405C83.6264 1.26132 75.4837 -0.795337 75.331 0.449638C75.218 1.37033 80.7453 5.38157 85.6428 7.93254C87.9172 9.11677 90.5283 10.9879 91.4455 12.0905C93.1429 14.1302 96.6153 16.6658 99.3494 17.8618C102.419 19.2048 112.626 27.2095 114.535 29.7701C116.141 31.9256 116.956 32.4721 118.955 32.7378C121.021 33.0116 121.567 33.4045 122.427 35.2369C123.015 36.4899 124.295 37.8053 125.449 38.3437C126.55 38.857 128.275 40.4319 129.282 41.844C130.288 43.2562 131.683 44.4811 132.381 44.5667C133.078 44.6522 134.517 45.8335 135.578 47.1917C136.9 48.8829 138.085 49.7319 139.338 49.8857C141.632 50.1672 145.409 52.2654 147.001 54.1436C147.668 54.9303 148.559 55.4142 148.982 55.2198C149.71 54.8848 150.753 55.9703 159.926 66.6051C163.063 70.2422 163.766 70.7443 166.127 71.034C169.253 71.4175 173.468 74.3599 175.148 77.3314C175.758 78.4111 176.735 79.3525 177.32 79.4242C178.82 79.6083 179.629 81.1313 179.029 82.6429C178.425 84.1637 180.092 85.7812 183.381 86.8667C184.562 87.2558 185.891 88.1187 186.336 88.7838C186.781 89.4488 188.902 90.8701 191.05 91.9426C193.199 93.0151 195.939 94.6953 197.14 95.677C198.946 97.1527 199.226 97.7128 198.76 98.9212C198.315 100.075 198.542 100.664 199.843 101.724C200.748 102.463 202.208 103.813 203.088 104.726C203.968 105.638 205.218 106.45 205.867 106.53C206.516 106.609 207.466 107.456 207.979 108.412C208.492 109.368 210.596 112.425 212.655 115.205C214.713 117.986 216.68 121.267 217.026 122.497C217.372 123.727 218.509 125.949 219.553 127.434C220.597 128.919 221.41 130.47 221.36 130.88C221.31 131.29 222.468 133.082 223.934 134.862C225.4 136.642 227.731 139.816 229.114 141.915C232.177 146.567 232.552 145.498 230.416 138.201ZM220.746 175.759C215.354 161.122 212.195 155.251 204.514 145.596C199.92 139.82 197.704 136.494 197.571 135.175C197.352 132.994 194.975 129.434 193.627 129.269C192.069 129.078 177.933 111.461 177.469 109.132C177.022 106.888 175.129 105.31 172.495 104.987C169.919 104.671 165.352 101.169 161.479 96.5386C158.152 92.5612 157.64 92.1872 155.638 92.2649C154.168 92.3219 153.237 92.0278 152.817 91.3741C152.473 90.8375 150.067 88.7689 147.471 86.7778L142.751 83.1572L145.103 83.2479C146.395 83.2974 147.476 83.1429 147.504 82.9045C147.531 82.6655 145.993 81.5785 144.084 80.4884C141.169 78.823 140.682 78.295 141.038 77.1866C141.387 76.1015 140.95 75.574 138.58 74.2153C136.995 73.307 132.682 71.4039 128.997 69.9872C125.311 68.5705 120.603 66.2347 118.533 64.7968C116.464 63.3584 114.258 62.1187 113.63 62.0417C113.002 61.9646 110.899 60.5737 108.956 58.951C104.642 55.3476 101.929 54.0132 98.8803 53.9952C97.0776 53.9845 95.7684 53.3882 93.0325 51.3334C91.094 49.8765 88.8567 48.6451 88.0607 48.5972C87.2654 48.5494 86.5071 48.0794 86.3759 47.5529C85.9796 45.9631 79.7818 43.0855 77.0228 43.2107C75.1875 43.2937 74.2358 42.9709 73.004 41.8476C72.1158 41.0382 69.9404 39.8903 68.1695 39.298C64.8061 38.1715 61.3354 35.6948 59.5763 33.1659C59.008 32.3485 57.847 31.595 56.9954 31.4905C56.1439 31.386 54.5688 30.315 53.4949 29.1109C51.9423 27.369 51.1668 26.9562 49.7115 27.0934C48.1303 27.2426 47.4099 26.7134 44.434 23.2193L40.9883 19.172L37.3997 19.138C34.6567 19.1115 33.5049 18.828 32.5134 17.9351C31.4302 16.9582 30.8574 16.8484 29.0307 17.2667C27.151 17.6963 25.9532 17.4199 20.5053 15.2989C13.2047 12.4564 8.72701 11.782 3.64966 12.7609L0.0560503 13.4542L4.11103 15.9885C8.82185 18.9332 16.9252 22.5115 21.5951 23.7096C23.6255 24.2305 25.4498 25.1828 26.4452 26.2414C27.3221 27.1744 28.5527 28.001 29.1792 28.0778C29.8567 28.1609 30.2309 28.6362 30.1025 29.2513C29.9352 30.0537 30.9825 30.6785 34.7753 32.0375C37.4639 33.0015 40.5108 33.9048 41.5462 34.0446C42.5815 34.185 44.2081 34.9657 45.1608 35.7798C46.1135 36.5939 47.3534 37.3182 47.9156 37.3891C48.4784 37.4607 50.6986 39.6009 52.8495 42.1454C56.685 46.682 56.828 46.7799 60.2449 47.1992C63.4293 47.5898 63.8039 47.7965 64.5891 49.5961C65.8558 52.499 67.6021 53.5317 70.2667 52.9541C71.4633 52.6952 72.49 52.7133 72.548 52.9947C72.8911 54.6488 74.8014 57.979 75.9424 58.9119C78.7086 61.1721 79.6571 61.2138 80.7889 59.1276L81.8425 57.1849L82.6783 60.5434C83.7117 64.698 84.8305 65.4425 89.73 65.2373C93.2989 65.0883 93.5762 65.1784 95.8744 67.2446C100.683 71.5677 100.997 71.7581 101.761 70.8164C102.913 69.3967 109.139 73.8108 111.858 77.9731C113.09 79.8614 115.657 82.7069 117.561 84.2974C120.68 86.9025 121.435 87.2414 125.167 87.7119C129.91 88.3098 133.684 90.2898 136.344 93.5755C137.275 94.7244 139.247 96.1822 140.728 96.8148C142.561 97.5985 143.444 98.3665 143.496 99.2233C143.599 100.899 144.352 102.03 147.023 104.52C149.549 106.875 150.274 107.144 150.44 105.79C150.631 104.235 151.624 104.852 152.185 106.874C152.654 108.566 153.088 108.853 156.302 109.593C159.94 110.43 166.946 113.666 170.99 116.376C172.823 117.605 173.16 118.188 172.963 119.793C172.627 122.531 175.635 126.248 178.963 127.207C180.754 127.724 181.734 128.453 182.336 129.716C183.696 132.569 185.979 134.662 188.037 134.939C189.642 135.155 190.003 135.534 190.297 137.313C190.539 138.771 191.249 139.786 192.58 140.578C193.933 141.383 194.461 142.15 194.339 143.138C194.062 145.4 196.628 148.725 199.229 149.474C201.235 150.053 201.676 150.573 202.887 153.789C204.706 158.617 206.061 160.776 207.374 160.937C207.966 161.01 208.864 162.053 209.369 163.255C209.875 164.458 212.433 168.288 215.054 171.767C217.675 175.247 220.581 179.837 221.513 181.969C222.978 185.319 224.069 186.796 224.212 185.624C224.235 185.438 222.675 180.998 220.746 175.759ZM201.635 181.048C199.981 176.787 192.315 167.012 187.043 162.44C185.386 161.003 183.585 158.804 183.04 157.553C182.378 156.036 181.571 155.216 180.615 155.091C179.668 154.968 177.436 152.745 174.056 148.561C171.238 145.072 168.071 141.642 167.018 140.938C165.965 140.234 164.473 138.945 163.703 138.074C162.932 137.204 161.074 135.971 159.573 135.335C155.732 133.709 154.775 133.039 152.229 130.203C150.994 128.827 148.572 127.093 146.847 126.348C145.12 125.603 143.088 124.37 142.33 123.606C141.571 122.843 139.434 121.428 137.579 120.462C135.724 119.496 134.085 118.442 133.936 118.118C133.613 117.416 128.786 114.376 121.797 110.472C114.958 106.651 105.784 103.067 103.256 103.227C101.861 103.316 99.5974 102.523 95.8647 100.637C91.7518 98.5595 88.9432 97.6223 83.941 96.6577C77.02 95.3231 75.0847 94.4382 64.7756 87.8889C60.6899 85.2934 59.2592 84.7153 55.8944 84.3025C52.3832 83.8718 51.6158 83.539 49.7418 81.6339C47.886 79.7477 47.0848 79.3942 43.7275 78.9823C41.5977 78.721 39.5947 78.1742 39.2772 77.7678C38.8747 77.2527 38.195 77.1872 37.035 77.5533C35.7251 77.9661 34.274 77.7 30.2334 76.3068C27.0135 75.1966 22.5992 74.2442 18.4054 73.7565C7.37207 72.4718 7.96991 73.1365 22.6932 78.5222C25.0437 79.3821 28.2172 80.4227 29.7454 80.8354C31.2736 81.2481 33.1026 82.0536 33.8095 82.6252C34.5163 83.1967 35.5405 83.7191 36.0848 83.7859C36.6296 83.8528 37.7731 84.557 38.6262 85.3512C39.4799 86.1455 43.0615 87.8589 46.5859 89.1589C54.3118 92.0077 57.6468 93.6359 59.809 95.614C60.9125 96.6233 62.4341 97.2253 64.53 97.4824C67.0162 97.7874 67.8746 98.2053 68.9062 99.6141C69.8252 100.869 70.8476 101.447 72.5074 101.651C74.1364 101.851 75.4616 102.582 76.9663 104.112C78.1437 105.309 79.6479 106.354 80.3084 106.435C80.9689 106.516 82.6255 107.312 83.9903 108.204C86.5433 109.873 97.2456 113.617 100.661 114.036C101.744 114.168 103.83 115.305 105.445 116.643C110.455 120.792 118.078 125.682 119.81 125.858C122.064 126.087 127.89 127.887 129.765 128.933C130.6 129.399 131.603 130.28 131.995 130.891C132.387 131.502 133.391 132.085 134.225 132.188C136.504 132.467 138.619 134.546 138.404 136.296C138.158 138.301 139.474 138.953 147.425 140.765C151.009 141.581 155.572 142.994 157.565 143.905C160.947 145.449 161.175 145.689 160.975 147.487C160.857 148.548 160.935 149.638 161.148 149.911C161.362 150.184 163.266 150.959 165.381 151.632C168.54 152.638 170.136 153.698 174.33 157.575C177.138 160.171 181.683 165.082 184.43 168.489C187.178 171.896 189.757 174.724 190.16 174.773C191.574 174.947 196.563 178.842 199.559 182.111C201.22 183.925 202.71 185.309 202.868 185.186C203.025 185.062 202.471 183.2 201.635 181.048ZM187.398 198.301C180.032 189.438 170.024 178.969 167.944 177.951C166.75 177.366 163.421 174.612 160.546 171.832C157.671 169.051 154.142 165.987 152.702 165.022C151.263 164.057 149.706 162.859 149.241 162.361C148.249 161.3 143.438 158.858 141.953 158.662C141.388 158.588 139.33 157.153 137.381 155.474C135.431 153.796 132.269 151.807 130.355 151.055C128.44 150.303 126.223 149.14 125.428 148.471C124.633 147.801 122.361 146.432 120.379 145.428C118.397 144.425 114.068 142.097 110.76 140.256C102.21 135.497 93.3873 132.218 86.1486 131.107C82.5082 130.549 78.8414 129.572 76.8294 128.625C74.7054 127.625 70.6689 126.583 65.6066 125.729C59.3006 124.664 57.4829 124.141 56.6233 123.145C56.0313 122.459 54.9181 121.82 54.1508 121.726C53.3828 121.632 52.0386 121.076 51.1623 120.492C50.2866 119.908 48.527 119.135 47.252 118.775C45.9774 118.416 44.2253 117.473 43.3587 116.681C42.039 115.473 40.3151 114.996 32.7222 113.736C27.7381 112.91 22.083 111.865 20.1544 111.414C18.2257 110.963 16.3135 110.748 15.905 110.937C15.4961 111.125 18.2349 113.343 21.9914 115.866C26.9018 119.165 29.8073 120.691 32.3311 121.297C34.262 121.761 38.1591 122.981 40.9924 124.009C43.8249 125.037 49.442 126.995 53.474 128.36C57.5061 129.724 61.085 131.126 61.4269 131.475C62.6573 132.729 72.8844 137.986 76.187 139.061C84.0055 141.608 86.3342 142.135 87.5994 141.645C88.6153 141.252 89.9807 141.884 94.2459 144.723C97.1983 146.687 101.129 148.814 102.981 149.447C104.833 150.081 106.948 151.088 107.681 151.684C108.601 152.431 109.863 152.744 111.756 152.693C114.563 152.618 119.199 154.264 122.38 156.465C123.266 157.079 124.732 157.985 125.636 158.479C126.589 158.999 127.221 159.858 127.139 160.521C126.912 162.372 128.132 163.336 131.181 163.714C134.482 164.123 144.69 166.928 148.028 168.342C149.849 169.113 150.265 169.608 150.116 170.825C149.879 172.755 151.224 173.691 155.785 174.77C158.296 175.365 159.844 176.13 160.81 177.254C161.577 178.149 163.145 179.41 164.293 180.058C165.442 180.706 168.161 183.106 170.337 185.391C172.513 187.676 175.288 190.219 176.505 191.042C177.722 191.864 178.997 193.17 179.339 193.945C179.68 194.719 181.11 196.032 182.516 196.862C183.922 197.692 186.244 199.408 187.675 200.675C189.106 201.943 190.415 202.872 190.583 202.74C190.752 202.608 189.318 200.61 187.398 198.301Z" fill="#E3E3E3"/>
</g>
<defs>
<filter id="filter0_i_1800_3368" x="0.0566406" y="0.0742188" width="231.709" height="202.678" filterUnits="userSpaceOnUse" color-interpolation-filters="sRGB">
<feFlood flood-opacity="0" result="BackgroundImageFix"/>
<feBlend mode="normal" in="SourceGraphic" in2="BackgroundImageFix" result="shape"/>
<feColorMatrix in="SourceAlpha" type="matrix" values="0 0 0 0 0 0 0 0 0 0 0 0 0 0 0 0 0 0 127 0" result="hardAlpha"/>
<feOffset dx="-4" dy="4"/>
<feComposite in2="hardAlpha" operator="arithmetic" k2="-1" k3="1"/>
<feColorMatrix type="matrix" values="0 0 0 0 0.870833 0 0 0 0 0.870833 0 0 0 0 0.870833 0 0 0 1 0"/>
<feBlend mode="normal" in2="shape" result="effect1_innerShadow_1800_3368"/>
</filter>
</defs>
</svg>
