<svg width="148" height="71" viewBox="0 0 148 71" fill="none" xmlns="http://www.w3.org/2000/svg">
<path d="M5.84188 35.7515L6.04126 27.8958C5.61591 27.8161 5.18392 27.723 4.74528 27.6167C4.30664 27.4971 3.87465 27.3774 3.4493 27.2578C3.03725 27.1249 2.63848 26.992 2.25301 26.859C1.86754 26.7261 1.52195 26.5932 1.21623 26.4603L1.89412 21.5555C2.73153 21.9808 3.66862 22.2999 4.7054 22.5125C5.74219 22.7252 6.77233 22.8315 7.79582 22.8315C7.98191 22.8315 8.20787 22.8249 8.47371 22.8116C8.75285 22.7983 9.01869 22.7651 9.27124 22.7119C9.52379 22.6455 9.73646 22.5458 9.90926 22.4128C10.0954 22.2799 10.1884 22.1005 10.1884 21.8745C10.1884 21.6353 10.0555 21.4558 9.78963 21.3362C9.53708 21.2033 9.23136 21.1102 8.87248 21.057C8.52688 20.9906 8.17464 20.9507 7.81576 20.9374C7.45687 20.9241 7.18438 20.9175 6.99829 20.9175C6.1343 20.9175 5.35007 20.8045 4.64559 20.5785C3.94111 20.3526 3.32967 20.0336 2.81128 19.6215C2.30618 19.1962 1.91406 18.6911 1.63493 18.1062C1.35579 17.5213 1.21623 16.8634 1.21623 16.1323C1.21623 15.4544 1.32921 14.8231 1.55518 14.2382C1.79443 13.6533 2.12009 13.1217 2.53215 12.6431C2.95749 12.1646 3.45595 11.7459 4.02751 11.387C4.61236 11.0149 5.24373 10.7091 5.92163 10.4699L5.60262 2.05599L7.75594 2.25537V9.99137C7.94203 9.9515 8.12147 9.92491 8.29427 9.91162C8.46707 9.88504 8.64651 9.85845 8.8326 9.83187L8.79273 2.05599L10.946 2.09586L10.6669 9.83187C11.5442 9.85845 12.4281 9.94485 13.3187 10.0911C14.2093 10.224 15.0267 10.4433 15.7711 10.749L15.2527 15.8133C14.5482 15.6272 13.8238 15.4677 13.0794 15.3348C12.3351 15.2019 11.6239 15.1354 10.946 15.1354C10.7334 15.1354 10.4476 15.1421 10.0887 15.1554C9.74311 15.1686 9.39752 15.2085 9.05192 15.275C8.71962 15.3414 8.42719 15.4411 8.17464 15.5741C7.93538 15.707 7.8224 15.8931 7.83569 16.1323C7.84899 16.3317 7.93538 16.4846 8.09489 16.5909C8.2544 16.6839 8.45378 16.7571 8.69303 16.8102C8.94558 16.8501 9.22472 16.87 9.53044 16.87C9.83616 16.87 10.1286 16.8634 10.4077 16.8501C10.7001 16.8368 10.9726 16.8235 11.2252 16.8102C11.4777 16.7969 11.6771 16.7969 11.8233 16.8102C12.6209 16.8501 13.3386 16.9897 13.9766 17.2289C14.6147 17.4682 15.1596 17.7938 15.6116 18.2059C16.0635 18.6047 16.4091 19.0832 16.6484 19.6414C16.8876 20.1997 17.0072 20.8111 17.0072 21.4757C17.0072 22.4062 16.8477 23.2303 16.5287 23.9481C16.223 24.6659 15.791 25.2906 15.2327 25.8223C14.6745 26.3407 14.0032 26.7727 13.219 27.1182C12.4481 27.4505 11.5974 27.6965 10.6669 27.856L10.9859 35.7116L9.03198 35.911L8.95223 28.0553C8.76614 28.0819 8.58005 28.0952 8.39396 28.0952C8.20787 28.0952 8.02178 28.0952 7.83569 28.0952H7.75594L7.79582 35.8711L5.84188 35.7515ZM43.2554 5.04671L35.4795 18.5648L42.099 30.3283L33.7649 32.9202L30.176 24.7855L25.9491 32.9601L17.3358 29.8498L24.6731 18.2856L17.9738 6.12337L27.1055 3.93017L30.3754 11.9453L33.8446 3.93017L43.2554 5.04671ZM64.5191 16.89C64.5191 18.0464 64.4393 19.2028 64.2798 20.3592C62.0069 20.5054 59.7472 20.7447 57.5008 21.077C55.2545 21.396 53.0081 21.715 50.7617 22.034C51.1073 22.991 51.6457 23.7553 52.3767 24.3269C53.1211 24.8985 54.005 25.1842 55.0285 25.1842C55.5602 25.1842 56.1384 25.0846 56.7631 24.8852C57.4011 24.6858 58.0325 24.4399 58.6572 24.1475C59.282 23.8417 59.8801 23.5161 60.4517 23.1705C61.0232 22.8249 61.515 22.5125 61.9271 22.2334L60.9701 31.2853C60.4517 31.6841 59.8868 32.023 59.2753 32.3022C58.6772 32.5813 58.0525 32.8073 57.4011 32.9801C56.7498 33.1529 56.0919 33.2791 55.4273 33.3589C54.7627 33.4386 54.1113 33.4785 53.4733 33.4785C52.1574 33.4785 50.9545 33.2991 49.8645 32.9402C48.7746 32.5813 47.7843 32.0828 46.8937 31.4448C46.0165 30.7935 45.2455 30.0292 44.5809 29.1519C43.9163 28.2747 43.3647 27.3176 42.926 26.2808C42.4874 25.2441 42.1551 24.1475 41.9291 22.991C41.7032 21.8346 41.5902 20.6649 41.5902 19.4819C41.5902 18.2458 41.7032 17.0096 41.9291 15.7734C42.1551 14.5373 42.4941 13.3476 42.946 12.2045C43.4112 11.0614 43.9894 10.0047 44.6806 9.03434C45.3851 8.05073 46.2025 7.19338 47.133 6.46232C48.0634 5.73125 49.1135 5.15969 50.2832 4.74764C51.4662 4.33558 52.7688 4.12956 54.1911 4.12956C55.3741 4.12956 56.4508 4.29571 57.4211 4.62801C58.4047 4.94702 59.2753 5.39895 60.033 5.9838C60.8039 6.55536 61.4685 7.23991 62.0268 8.03743C62.5984 8.83496 63.0636 9.71224 63.4225 10.6693C63.7946 11.613 64.0671 12.6166 64.2399 13.6799C64.426 14.73 64.5191 15.8 64.5191 16.89ZM56.5438 15.8532C56.5438 15.481 56.5039 15.1022 56.4242 14.7167C56.3444 14.318 56.2115 13.9591 56.0254 13.6401C55.8526 13.321 55.62 13.0618 55.3276 12.8625C55.0351 12.6498 54.6696 12.5435 54.231 12.5435C53.6993 12.5435 53.2274 12.6897 52.8154 12.9821C52.4166 13.2612 52.071 13.6201 51.7786 14.0588C51.4862 14.4841 51.2469 14.9493 51.0608 15.4544C50.8747 15.9595 50.7352 16.4247 50.6421 16.8501L56.5438 16.2918V15.8532ZM89.6108 13.7796C89.6108 14.8164 89.5178 15.7601 89.3317 16.6108C89.1589 17.4482 88.8798 18.2192 88.4943 18.9237C88.1088 19.6281 87.6104 20.2795 86.9989 20.8776C86.3875 21.4757 85.6498 22.0473 84.7858 22.5923L89.5311 31.0461L80.5589 32.8006L77.4884 24.307L75.0161 24.3867L74.6572 32.681H66.0838C66.1503 29.6504 66.2101 26.6331 66.2633 23.6291C66.3297 20.6251 66.4028 17.6077 66.4826 14.5771C66.5092 13.0486 66.5357 11.5333 66.5623 10.0312C66.5889 8.52924 66.6421 7.01394 66.7218 5.48535C67.6523 5.13976 68.5694 4.85398 69.4733 4.62801C70.3772 4.40204 71.281 4.22925 72.1849 4.10962C73.102 3.9767 74.0258 3.8903 74.9563 3.85042C75.9 3.79725 76.8637 3.77067 77.8473 3.77067C79.3626 3.77067 80.8248 3.98334 82.2337 4.40869C83.656 4.82074 84.9121 5.44547 86.002 6.28288C87.092 7.12028 87.9626 8.16371 88.6139 9.41317C89.2785 10.6626 89.6108 12.1181 89.6108 13.7796ZM80.6785 14.4176C80.6785 13.8594 80.5988 13.3476 80.4393 12.8824C80.2931 12.4172 80.0671 12.0184 79.7614 11.6861C79.469 11.3405 79.0968 11.0747 78.6448 10.8886C78.2062 10.6892 77.6878 10.5895 77.0897 10.5895C76.8238 10.5895 76.5646 10.6095 76.3121 10.6493C76.0595 10.6759 75.8136 10.7224 75.5744 10.7889L75.2554 18.2059H75.7339C76.3054 18.2059 76.8836 18.1328 77.4685 17.9866C78.0666 17.8404 78.5983 17.6144 79.0635 17.3087C79.5421 17.003 79.9275 16.6108 80.22 16.1323C80.5257 15.6538 80.6785 15.0822 80.6785 14.4176ZM116.058 17.7274C116.058 18.937 115.919 20.1067 115.64 21.2365C115.361 22.353 114.955 23.4031 114.423 24.3867C113.905 25.3703 113.267 26.2742 112.509 27.0983C111.765 27.9091 110.921 28.607 109.977 29.1918C109.047 29.7767 108.03 30.2352 106.927 30.5675C105.823 30.8866 104.654 31.0461 103.418 31.0461C102.221 31.0461 101.078 30.8932 99.9882 30.5875C98.9116 30.2818 97.9014 29.8564 96.9576 29.3114C96.0139 28.7532 95.1566 28.0886 94.3856 27.3176C93.628 26.5334 92.9767 25.6694 92.4317 24.7257C91.9 23.7686 91.4813 22.7451 91.1756 21.6552C90.8831 20.5652 90.7369 19.4288 90.7369 18.2458C90.7369 17.0894 90.8765 15.9595 91.1556 14.8563C91.4348 13.7397 91.8335 12.6897 92.3519 11.7061C92.8836 10.7224 93.5216 9.81857 94.266 8.99446C95.0103 8.17035 95.8411 7.45923 96.7583 6.86108C97.6887 6.26294 98.6923 5.79771 99.7689 5.46541C100.846 5.13311 101.982 4.96696 103.178 4.96696C105.106 4.96696 106.86 5.26603 108.442 5.86417C110.037 6.46232 111.393 7.31966 112.509 8.4362C113.639 9.53944 114.51 10.8819 115.121 12.4637C115.746 14.0322 116.058 15.7867 116.058 17.7274ZM107.206 18.2458C107.206 17.6742 107.119 17.1226 106.947 16.5909C106.787 16.0459 106.548 15.5674 106.229 15.1554C105.91 14.73 105.511 14.3911 105.033 14.1385C104.567 13.8727 104.029 13.7397 103.418 13.7397C102.793 13.7397 102.235 13.8527 101.743 14.0787C101.251 14.3047 100.826 14.617 100.467 15.0158C100.121 15.4013 99.8553 15.8598 99.6692 16.3915C99.4831 16.9099 99.3901 17.4615 99.3901 18.0464C99.3901 18.6047 99.4698 19.1629 99.6294 19.7212C99.7889 20.2795 100.028 20.7846 100.347 21.2365C100.666 21.6884 101.058 22.054 101.523 22.3331C102.002 22.6122 102.554 22.7518 103.178 22.7518C103.803 22.7518 104.361 22.6322 104.853 22.3929C105.358 22.1404 105.784 21.8081 106.129 21.396C106.475 20.9706 106.741 20.4855 106.927 19.9405C107.113 19.3955 107.206 18.8306 107.206 18.2458Z" fill="black"/>
<path d="M7.938 53.4H10.53L6.714 59.448L10.8 66H8.208L5.508 61.158L2.718 66H0.144L4.32 59.448L0.594 53.4H3.168L5.526 57.666L7.938 53.4ZM15.1096 59.988H17.4136L21.6796 66H19.1236L15.1096 59.988ZM12.5176 53.4H14.6416V66H12.5176V53.4ZM13.7776 55.236V53.4H16.4056C17.3176 53.4 18.1096 53.562 18.7816 53.886C19.4656 54.21 19.9936 54.666 20.3656 55.254C20.7376 55.83 20.9236 56.514 20.9236 57.306C20.9236 58.098 20.7376 58.788 20.3656 59.376C19.9936 59.964 19.4656 60.42 18.7816 60.744C18.1096 61.068 17.3176 61.23 16.4056 61.23H13.7776V59.484H16.3156C16.7956 59.484 17.2156 59.4 17.5756 59.232C17.9476 59.064 18.2356 58.824 18.4396 58.512C18.6436 58.188 18.7456 57.804 18.7456 57.36C18.7456 56.904 18.6436 56.52 18.4396 56.208C18.2356 55.896 17.9476 55.656 17.5756 55.488C17.2156 55.32 16.7956 55.236 16.3156 55.236H13.7776ZM23.4027 53.4H25.5267V66H23.4027V53.4ZM24.6627 55.272V53.4H27.2007C28.1127 53.4 28.9047 53.562 29.5767 53.886C30.2607 54.198 30.7887 54.648 31.1607 55.236C31.5327 55.812 31.7187 56.502 31.7187 57.306C31.7187 58.11 31.5327 58.806 31.1607 59.394C30.7887 59.982 30.2607 60.438 29.5767 60.762C28.9047 61.074 28.1127 61.23 27.2007 61.23H24.6627V59.358H27.2007C27.9327 59.358 28.5207 59.184 28.9647 58.836C29.4087 58.488 29.6307 57.978 29.6307 57.306C29.6307 56.634 29.4087 56.13 28.9647 55.794C28.5207 55.446 27.9327 55.272 27.2007 55.272H24.6627ZM41.2934 51.96V66H39.3314V51.96H41.2934ZM48.1514 61.86C48.1514 62.76 47.9654 63.534 47.5934 64.182C47.2214 64.83 46.7294 65.328 46.1174 65.676C45.5054 66.012 44.8394 66.18 44.1194 66.18C43.4354 66.18 42.8234 66.006 42.2834 65.658C41.7554 65.31 41.3414 64.812 41.0414 64.164C40.7414 63.516 40.5914 62.748 40.5914 61.86C40.5914 60.96 40.7414 60.192 41.0414 59.556C41.3414 58.908 41.7554 58.41 42.2834 58.062C42.8234 57.714 43.4354 57.54 44.1194 57.54C44.8394 57.54 45.5054 57.714 46.1174 58.062C46.7294 58.398 47.2214 58.89 47.5934 59.538C47.9654 60.174 48.1514 60.948 48.1514 61.86ZM46.1354 61.86C46.1354 61.308 46.0214 60.834 45.7934 60.438C45.5654 60.042 45.2594 59.742 44.8754 59.538C44.5034 59.334 44.0894 59.232 43.6334 59.232C43.2614 59.232 42.8954 59.334 42.5354 59.538C42.1754 59.742 41.8754 60.042 41.6354 60.438C41.4074 60.822 41.2934 61.296 41.2934 61.86C41.2934 62.424 41.4074 62.904 41.6354 63.3C41.8754 63.684 42.1754 63.978 42.5354 64.182C42.8954 64.386 43.2614 64.488 43.6334 64.488C44.0894 64.488 44.5034 64.386 44.8754 64.182C45.2594 63.978 45.5654 63.678 45.7934 63.282C46.0214 62.886 46.1354 62.412 46.1354 61.86ZM50.183 51.96H52.127V66H50.183V51.96ZM56.0167 63.426C56.0167 63.702 56.0827 63.942 56.2147 64.146C56.3467 64.338 56.5267 64.482 56.7547 64.578C56.9947 64.674 57.2647 64.722 57.5647 64.722C57.9487 64.722 58.2967 64.644 58.6087 64.488C58.9327 64.332 59.1907 64.104 59.3827 63.804C59.5867 63.492 59.6887 63.132 59.6887 62.724L59.9767 63.804C59.9767 64.332 59.8207 64.776 59.5087 65.136C59.2087 65.484 58.8247 65.748 58.3567 65.928C57.9007 66.096 57.4327 66.18 56.9527 66.18C56.4367 66.18 55.9567 66.078 55.5127 65.874C55.0687 65.67 54.7147 65.37 54.4507 64.974C54.1867 64.578 54.0547 64.098 54.0547 63.534C54.0547 62.73 54.3367 62.094 54.9007 61.626C55.4647 61.146 56.2627 60.906 57.2947 60.906C57.8467 60.906 58.3207 60.966 58.7167 61.086C59.1247 61.206 59.4607 61.35 59.7247 61.518C59.9887 61.674 60.1747 61.818 60.2827 61.95V62.94C59.9107 62.676 59.5147 62.484 59.0947 62.364C58.6747 62.244 58.2307 62.184 57.7627 62.184C57.3547 62.184 57.0247 62.238 56.7727 62.346C56.5207 62.442 56.3287 62.58 56.1967 62.76C56.0767 62.94 56.0167 63.162 56.0167 63.426ZM55.4047 59.88L54.6127 58.512C54.9847 58.284 55.4647 58.062 56.0527 57.846C56.6527 57.63 57.3367 57.522 58.1047 57.522C58.7887 57.522 59.3887 57.624 59.9047 57.828C60.4327 58.032 60.8467 58.326 61.1467 58.71C61.4467 59.082 61.5967 59.544 61.5967 60.096V66H59.6887V60.474C59.6887 60.21 59.6407 59.994 59.5447 59.826C59.4607 59.658 59.3407 59.52 59.1847 59.412C59.0287 59.304 58.8427 59.226 58.6267 59.178C58.4107 59.13 58.1767 59.106 57.9247 59.106C57.5407 59.106 57.1747 59.154 56.8267 59.25C56.4907 59.334 56.1967 59.442 55.9447 59.574C55.7047 59.694 55.5247 59.796 55.4047 59.88ZM65.339 61.86C65.339 62.388 65.453 62.85 65.681 63.246C65.909 63.63 66.215 63.936 66.599 64.164C66.995 64.392 67.433 64.506 67.913 64.506C68.309 64.506 68.687 64.446 69.047 64.326C69.407 64.206 69.725 64.038 70.001 63.822C70.277 63.606 70.481 63.366 70.613 63.102V65.244C70.325 65.532 69.935 65.76 69.443 65.928C68.951 66.096 68.411 66.18 67.823 66.18C66.971 66.18 66.203 66 65.519 65.64C64.847 65.268 64.313 64.758 63.917 64.11C63.533 63.45 63.341 62.7 63.341 61.86C63.341 61.008 63.533 60.258 63.917 59.61C64.313 58.962 64.847 58.458 65.519 58.098C66.203 57.726 66.971 57.54 67.823 57.54C68.411 57.54 68.951 57.624 69.443 57.792C69.935 57.96 70.325 58.188 70.613 58.476V60.618C70.481 60.342 70.271 60.102 69.983 59.898C69.707 59.682 69.389 59.514 69.029 59.394C68.669 59.274 68.297 59.214 67.913 59.214C67.433 59.214 66.995 59.328 66.599 59.556C66.215 59.784 65.909 60.096 65.681 60.492C65.453 60.888 65.339 61.344 65.339 61.86ZM72.8698 51.96H74.7778V66H72.8698V51.96ZM77.8198 57.72H80.1958L76.6318 61.14L80.5558 66H78.1978L74.2378 61.14L77.8198 57.72ZM89.5004 69.96H87.5384V57.72H89.5004V69.96ZM96.3584 61.86C96.3584 62.772 96.1724 63.558 95.8004 64.218C95.4284 64.866 94.9364 65.364 94.3244 65.712C93.7124 66.048 93.0464 66.216 92.3264 66.216C91.6184 66.216 91.0004 66.042 90.4724 65.694C89.9564 65.334 89.5544 64.83 89.2664 64.182C88.9904 63.522 88.8524 62.748 88.8524 61.86C88.8524 60.96 88.9904 60.186 89.2664 59.538C89.5544 58.89 89.9564 58.392 90.4724 58.044C91.0004 57.684 91.6184 57.504 92.3264 57.504C93.0464 57.504 93.7124 57.678 94.3244 58.026C94.9364 58.362 95.4284 58.854 95.8004 59.502C96.1724 60.15 96.3584 60.936 96.3584 61.86ZM94.3424 61.86C94.3424 61.308 94.2284 60.84 94.0004 60.456C93.7724 60.06 93.4664 59.766 93.0824 59.574C92.7104 59.37 92.2964 59.268 91.8404 59.268C91.4684 59.268 91.1024 59.37 90.7424 59.574C90.3824 59.766 90.0824 60.054 89.8424 60.438C89.6144 60.822 89.5004 61.296 89.5004 61.86C89.5004 62.424 89.6144 62.898 89.8424 63.282C90.0824 63.666 90.3824 63.96 90.7424 64.164C91.1024 64.356 91.4684 64.452 91.8404 64.452C92.2964 64.452 92.7104 64.356 93.0824 64.164C93.4664 63.96 93.7724 63.666 94.0004 63.282C94.2284 62.886 94.3424 62.412 94.3424 61.86ZM99.614 63.426C99.614 63.702 99.68 63.942 99.812 64.146C99.944 64.338 100.124 64.482 100.352 64.578C100.592 64.674 100.862 64.722 101.162 64.722C101.546 64.722 101.894 64.644 102.206 64.488C102.53 64.332 102.788 64.104 102.98 63.804C103.184 63.492 103.286 63.132 103.286 62.724L103.574 63.804C103.574 64.332 103.418 64.776 103.106 65.136C102.806 65.484 102.422 65.748 101.954 65.928C101.498 66.096 101.03 66.18 100.55 66.18C100.034 66.18 99.554 66.078 99.11 65.874C98.666 65.67 98.312 65.37 98.048 64.974C97.784 64.578 97.652 64.098 97.652 63.534C97.652 62.73 97.934 62.094 98.498 61.626C99.062 61.146 99.86 60.906 100.892 60.906C101.444 60.906 101.918 60.966 102.314 61.086C102.722 61.206 103.058 61.35 103.322 61.518C103.586 61.674 103.772 61.818 103.88 61.95V62.94C103.508 62.676 103.112 62.484 102.692 62.364C102.272 62.244 101.828 62.184 101.36 62.184C100.952 62.184 100.622 62.238 100.37 62.346C100.118 62.442 99.926 62.58 99.794 62.76C99.674 62.94 99.614 63.162 99.614 63.426ZM99.002 59.88L98.21 58.512C98.582 58.284 99.062 58.062 99.65 57.846C100.25 57.63 100.934 57.522 101.702 57.522C102.386 57.522 102.986 57.624 103.502 57.828C104.03 58.032 104.444 58.326 104.744 58.71C105.044 59.082 105.194 59.544 105.194 60.096V66H103.286V60.474C103.286 60.21 103.238 59.994 103.142 59.826C103.058 59.658 102.938 59.52 102.782 59.412C102.626 59.304 102.44 59.226 102.224 59.178C102.008 59.13 101.774 59.106 101.522 59.106C101.138 59.106 100.772 59.154 100.424 59.25C100.088 59.334 99.794 59.442 99.542 59.574C99.302 59.694 99.122 59.796 99.002 59.88ZM112.968 60.96C112.968 60.348 112.842 59.886 112.59 59.574C112.338 59.262 111.948 59.106 111.42 59.106C111.06 59.106 110.742 59.184 110.466 59.34C110.19 59.484 109.974 59.7 109.818 59.988C109.662 60.264 109.584 60.588 109.584 60.96V66H107.64V57.72H109.584V58.998C109.848 58.506 110.184 58.14 110.592 57.9C111.012 57.66 111.51 57.54 112.086 57.54C113.022 57.54 113.736 57.828 114.228 58.404C114.72 58.968 114.966 59.748 114.966 60.744V66H112.968V60.96ZM116.477 57.72H121.175V59.43H116.477V57.72ZM117.863 54.84H119.789V66H117.863V54.84ZM124.64 51.96V66H122.696V51.96H124.64ZM128.024 60.96C128.024 60.348 127.898 59.886 127.646 59.574C127.406 59.262 127.016 59.106 126.476 59.106C126.116 59.106 125.798 59.184 125.522 59.34C125.246 59.496 125.03 59.712 124.874 59.988C124.718 60.264 124.64 60.588 124.64 60.96H124.172C124.172 60.3 124.292 59.712 124.532 59.196C124.772 58.68 125.108 58.266 125.54 57.954C125.984 57.642 126.518 57.486 127.142 57.486C127.754 57.486 128.27 57.606 128.69 57.846C129.122 58.086 129.446 58.446 129.662 58.926C129.878 59.394 129.986 59.982 129.986 60.69V66H128.024V60.96ZM136.231 66.18C135.391 66.18 134.647 66 133.999 65.64C133.363 65.28 132.871 64.776 132.523 64.128C132.175 63.48 132.001 62.724 132.001 61.86C132.001 60.984 132.175 60.222 132.523 59.574C132.883 58.926 133.387 58.428 134.035 58.08C134.683 57.72 135.445 57.54 136.321 57.54C137.197 57.54 137.941 57.708 138.553 58.044C139.165 58.38 139.633 58.866 139.957 59.502C140.293 60.126 140.461 60.882 140.461 61.77C140.461 61.866 140.455 61.968 140.443 62.076C140.443 62.184 140.437 62.262 140.425 62.31H133.153V60.978H138.769L138.175 61.806C138.211 61.734 138.247 61.638 138.283 61.518C138.331 61.386 138.355 61.278 138.355 61.194C138.355 60.75 138.265 60.366 138.085 60.042C137.917 59.718 137.677 59.466 137.365 59.286C137.065 59.106 136.711 59.016 136.303 59.016C135.811 59.016 135.391 59.124 135.043 59.34C134.695 59.556 134.431 59.868 134.251 60.276C134.071 60.684 133.975 61.188 133.963 61.788C133.963 62.388 134.053 62.898 134.233 63.318C134.413 63.726 134.677 64.038 135.025 64.254C135.385 64.47 135.817 64.578 136.321 64.578C136.849 64.578 137.311 64.47 137.707 64.254C138.103 64.038 138.433 63.708 138.697 63.264L140.371 63.948C139.939 64.692 139.381 65.25 138.697 65.622C138.013 65.994 137.191 66.18 136.231 66.18ZM144.423 57.72V66H142.497V57.72H144.423ZM146.889 59.79C146.709 59.646 146.541 59.538 146.385 59.466C146.229 59.394 146.031 59.358 145.791 59.358C145.467 59.358 145.203 59.442 144.999 59.61C144.795 59.778 144.645 60.012 144.549 60.312C144.465 60.6 144.423 60.942 144.423 61.338L143.775 60.96C143.775 60.3 143.895 59.718 144.135 59.214C144.387 58.698 144.705 58.29 145.089 57.99C145.485 57.69 145.893 57.54 146.313 57.54C146.613 57.54 146.895 57.588 147.159 57.684C147.423 57.768 147.645 57.924 147.825 58.152L146.889 59.79Z" fill="#8E8E8E"/>
</svg>
