<svg width="75" height="747" viewBox="0 0 75 747" fill="none" xmlns="http://www.w3.org/2000/svg">
<path d="M65.9238 746.995L65.9238 13.8024" stroke="black" stroke-width="1.72923"/>
<line x1="55.9805" y1="13.8026" x2="74.1374" y2="13.8026" stroke="black" stroke-width="1.72923"/>
<line x1="56.8457" y1="746.131" x2="75.0026" y2="746.131" stroke="black" stroke-width="1.72923"/>
<line x1="56.8457" y1="511.82" x2="75.0026" y2="511.82" stroke="black" stroke-width="1.72923"/>
<line x1="55.9805" y1="286.156" x2="74.1374" y2="286.156" stroke="black" stroke-width="1.72923"/>
<path d="M22.2326 508.641C22.2326 509.356 22.1001 509.973 21.8349 510.492C21.5698 511.01 21.2124 511.437 20.7628 511.771C20.3132 512.105 19.8117 512.353 19.2584 512.515C18.705 512.676 18.1344 512.757 17.5464 512.757C16.8086 512.757 16.1458 512.67 15.5578 512.497C14.9814 512.325 14.4742 512.1 14.0361 511.823C13.598 511.535 13.2118 511.224 12.8775 510.889L14.0361 508.97C14.3243 509.258 14.6356 509.517 14.9699 509.748C15.3157 509.979 15.6731 510.163 16.042 510.301C16.4109 510.428 16.7625 510.492 17.0968 510.492C17.6156 510.492 18.0537 510.411 18.4111 510.249C18.78 510.088 19.0624 509.857 19.2584 509.558C19.4544 509.246 19.5523 508.866 19.5523 508.416C19.5523 507.978 19.4371 507.609 19.2065 507.31C18.9875 507.01 18.6877 506.785 18.3073 506.635C17.9384 506.474 17.5349 506.393 17.0968 506.393C16.7741 506.393 16.434 506.422 16.0766 506.48C15.7192 506.526 15.3503 506.612 14.9699 506.739C14.601 506.854 14.209 507.027 13.794 507.258L15.4541 500.445H22.0424V502.589H17.2871L16.5608 505.079C16.8605 504.918 17.1775 504.808 17.5119 504.75C17.8577 504.681 18.2093 504.647 18.5667 504.647C19.2238 504.647 19.829 504.808 20.3824 505.131C20.9357 505.454 21.3796 505.915 21.7139 506.514C22.0597 507.102 22.2326 507.811 22.2326 508.641ZM26.1946 506.497C26.1946 507.108 26.2522 507.667 26.3675 508.174C26.4828 508.67 26.65 509.102 26.869 509.471C27.088 509.829 27.3474 510.105 27.6472 510.301C27.9469 510.497 28.2812 510.595 28.6501 510.595C29.0305 510.595 29.3706 510.497 29.6704 510.301C29.9701 510.105 30.2295 509.829 30.4485 509.471C30.6675 509.102 30.8347 508.67 30.95 508.174C31.0653 507.667 31.1229 507.108 31.1229 506.497C31.1229 505.886 31.0653 505.333 30.95 504.837C30.8347 504.33 30.6675 503.897 30.4485 503.54C30.2295 503.171 29.9701 502.889 29.6704 502.693C29.3706 502.497 29.0305 502.399 28.6501 502.399C28.2812 502.399 27.9469 502.497 27.6472 502.693C27.3474 502.889 27.088 503.171 26.869 503.54C26.65 503.897 26.4828 504.33 26.3675 504.837C26.2522 505.333 26.1946 505.886 26.1946 506.497ZM23.791 506.497C23.791 505.217 23.9927 504.111 24.3962 503.177C24.8112 502.243 25.3819 501.523 26.1081 501.015C26.8459 500.497 27.6933 500.237 28.6501 500.237C29.6415 500.237 30.5004 500.497 31.2267 501.015C31.9529 501.523 32.5178 502.243 32.9213 503.177C33.3248 504.111 33.5265 505.217 33.5265 506.497C33.5265 507.777 33.3248 508.883 32.9213 509.817C32.5178 510.751 31.9529 511.477 31.2267 511.996C30.5004 512.503 29.6415 512.757 28.6501 512.757C27.6933 512.757 26.8459 512.503 26.1081 511.996C25.3819 511.477 24.8112 510.751 24.3962 509.817C23.9927 508.883 23.791 507.777 23.791 506.497Z" fill="#3A3A3A"/>
<path d="M38.9153 508.918C38.9153 509.395 39.0225 509.814 39.2369 510.173C39.4583 510.526 39.7453 510.799 40.0981 510.993C40.4508 511.18 40.8347 511.273 41.2497 511.273C41.5956 511.273 41.9034 511.228 42.1732 511.138C42.4429 511.048 42.685 510.927 42.8994 510.775C43.1208 510.623 43.311 510.457 43.4701 510.277V511.948C43.1726 512.183 42.8476 512.366 42.4948 512.497C42.1489 512.629 41.7097 512.695 41.1771 512.695C40.6238 512.695 40.1085 512.605 39.6312 512.425C39.1608 512.245 38.7493 511.986 38.3965 511.647C38.0507 511.308 37.7809 510.91 37.5872 510.453C37.4005 509.99 37.3071 509.478 37.3071 508.918C37.3071 508.358 37.4005 507.849 37.5872 507.393C37.7809 506.929 38.0507 506.528 38.3965 506.189C38.7493 505.85 39.1608 505.591 39.6312 505.411C40.1085 505.231 40.6238 505.141 41.1771 505.141C41.7097 505.141 42.1489 505.207 42.4948 505.338C42.8476 505.47 43.1726 505.653 43.4701 505.888V507.559C43.311 507.379 43.1208 507.213 42.8994 507.061C42.685 506.909 42.4429 506.788 42.1732 506.698C41.9034 506.608 41.5956 506.563 41.2497 506.563C40.8347 506.563 40.4508 506.66 40.0981 506.853C39.7453 507.04 39.4583 507.31 39.2369 507.663C39.0225 508.015 38.9153 508.434 38.9153 508.918ZM46.6479 508.472L46.181 512.549H44.6351L45.7142 504.923L48.7541 509.613L51.7941 504.923L52.8732 512.549H51.3272L50.8603 508.472L48.7541 511.875L46.6479 508.472Z" fill="#3A3A3A"/>
<path d="M25.9859 739.943C25.9859 740.554 26.0436 741.113 26.1589 741.62C26.2741 742.116 26.4413 742.548 26.6603 742.917C26.8794 743.275 27.1388 743.551 27.4385 743.747C27.7382 743.943 28.0725 744.041 28.4414 744.041C28.8219 744.041 29.162 743.943 29.4617 743.747C29.7614 743.551 30.0208 743.275 30.2398 742.917C30.4589 742.548 30.626 742.116 30.7413 741.62C30.8566 741.113 30.9142 740.554 30.9142 739.943C30.9142 739.332 30.8566 738.779 30.7413 738.283C30.626 737.776 30.4589 737.343 30.2398 736.986C30.0208 736.617 29.7614 736.335 29.4617 736.139C29.162 735.943 28.8219 735.845 28.4414 735.845C28.0725 735.845 27.7382 735.943 27.4385 736.139C27.1388 736.335 26.8794 736.617 26.6603 736.986C26.4413 737.343 26.2741 737.776 26.1589 738.283C26.0436 738.779 25.9859 739.332 25.9859 739.943ZM23.5823 739.943C23.5823 738.663 23.7841 737.557 24.1875 736.623C24.6026 735.689 25.1732 734.969 25.8995 734.461C26.6373 733.943 27.4846 733.683 28.4414 733.683C29.4329 733.683 30.2917 733.943 31.018 734.461C31.7443 734.969 32.3092 735.689 32.7126 736.623C33.1161 737.557 33.3179 738.663 33.3179 739.943C33.3179 741.223 33.1161 742.329 32.7126 743.263C32.3092 744.197 31.7443 744.923 31.018 745.442C30.2917 745.949 29.4329 746.203 28.4414 746.203C27.4846 746.203 26.6373 745.949 25.8995 745.442C25.1732 744.923 24.6026 744.197 24.1875 743.263C23.7841 742.329 23.5823 741.223 23.5823 739.943Z" fill="#3A3A3A"/>
<path d="M36.8723 742.364C36.8723 742.841 36.9795 743.26 37.194 743.619C37.4153 743.972 37.7023 744.245 38.0551 744.439C38.4079 744.626 38.7918 744.719 39.2068 744.719C39.5526 744.719 39.8604 744.674 40.1302 744.584C40.3999 744.494 40.642 744.373 40.8565 744.221C41.0778 744.069 41.268 743.903 41.4271 743.723V745.393C41.1297 745.629 40.8046 745.812 40.4518 745.943C40.106 746.075 39.6668 746.14 39.1341 746.14C38.5808 746.14 38.0655 746.051 37.5882 745.871C37.1179 745.691 36.7063 745.432 36.3536 745.093C36.0077 744.754 35.7379 744.356 35.5443 743.899C35.3575 743.436 35.2641 742.924 35.2641 742.364C35.2641 741.804 35.3575 741.295 35.5443 740.839C35.7379 740.375 36.0077 739.974 36.3536 739.635C36.7063 739.296 37.1179 739.037 37.5882 738.857C38.0655 738.677 38.5808 738.587 39.1341 738.587C39.6668 738.587 40.106 738.653 40.4518 738.784C40.8046 738.916 41.1297 739.099 41.4271 739.334V741.005C41.268 740.825 41.0778 740.659 40.8565 740.507C40.642 740.354 40.3999 740.233 40.1302 740.144C39.8604 740.054 39.5526 740.009 39.2068 740.009C38.7918 740.009 38.4079 740.105 38.0551 740.299C37.7023 740.486 37.4153 740.756 37.194 741.108C36.9795 741.461 36.8723 741.88 36.8723 742.364ZM44.605 741.918L44.1381 745.995H42.5921L43.6712 738.369L46.7112 743.059L49.7511 738.369L50.8302 745.995H49.2843L48.8174 741.918L46.7112 745.321L44.605 741.918Z" fill="#3A3A3A"/>
<path d="M4.24338 277.928V275.697L9.55211 274.573V286.885H7.14848V277.167L4.24338 277.928ZM21.7122 282.977C21.7122 283.692 21.5796 284.309 21.3145 284.827C21.0494 285.346 20.692 285.773 20.2424 286.107C19.7928 286.441 19.2913 286.689 18.738 286.851C18.1846 287.012 17.614 287.093 17.026 287.093C16.2882 287.093 15.6253 287.006 15.0374 286.833C14.461 286.66 13.9538 286.436 13.5157 286.159C13.0776 285.871 12.6914 285.56 12.3571 285.225L13.5157 283.306C13.8039 283.594 14.1152 283.853 14.4495 284.084C14.7953 284.314 15.1527 284.499 15.5216 284.637C15.8905 284.764 16.2421 284.827 16.5764 284.827C17.0952 284.827 17.5333 284.747 17.8906 284.585C18.2595 284.424 18.542 284.193 18.738 283.894C18.9339 283.582 19.0319 283.202 19.0319 282.752C19.0319 282.314 18.9166 281.945 18.6861 281.646C18.467 281.346 18.1673 281.121 17.7869 280.971C17.418 280.81 17.0145 280.729 16.5764 280.729C16.2536 280.729 15.9135 280.758 15.5562 280.816C15.1988 280.862 14.8299 280.948 14.4495 281.075C14.0806 281.19 13.6886 281.363 13.2736 281.594L14.9337 274.781H21.522V276.925H16.7666L16.0404 279.415C16.3401 279.254 16.6571 279.144 16.9914 279.086C17.3373 279.017 17.6889 278.983 18.0463 278.983C18.7034 278.983 19.3086 279.144 19.862 279.467C20.4153 279.79 20.8591 280.251 21.1935 280.85C21.5393 281.438 21.7122 282.147 21.7122 282.977ZM25.6742 280.833C25.6742 281.444 25.7318 282.003 25.8471 282.51C25.9624 283.006 26.1295 283.438 26.3486 283.807C26.5676 284.165 26.827 284.441 27.1267 284.637C27.4265 284.833 27.7608 284.931 28.1297 284.931C28.5101 284.931 28.8502 284.833 29.1499 284.637C29.4497 284.441 29.709 284.165 29.9281 283.807C30.1471 283.438 30.3143 283.006 30.4296 282.51C30.5448 282.003 30.6025 281.444 30.6025 280.833C30.6025 280.222 30.5448 279.669 30.4296 279.173C30.3143 278.666 30.1471 278.233 29.9281 277.876C29.709 277.507 29.4497 277.225 29.1499 277.029C28.8502 276.833 28.5101 276.735 28.1297 276.735C27.7608 276.735 27.4265 276.833 27.1267 277.029C26.827 277.225 26.5676 277.507 26.3486 277.876C26.1295 278.233 25.9624 278.666 25.8471 279.173C25.7318 279.669 25.6742 280.222 25.6742 280.833ZM23.2706 280.833C23.2706 279.553 23.4723 278.447 23.8758 277.513C24.2908 276.579 24.8614 275.859 25.5877 275.351C26.3255 274.833 27.1728 274.573 28.1297 274.573C29.1211 274.573 29.98 274.833 30.7062 275.351C31.4325 275.859 31.9974 276.579 32.4009 277.513C32.8044 278.447 33.0061 279.553 33.0061 280.833C33.0061 282.113 32.8044 283.219 32.4009 284.153C31.9974 285.087 31.4325 285.813 30.7062 286.332C29.98 286.839 29.1211 287.093 28.1297 287.093C27.1728 287.093 26.3255 286.839 25.5877 286.332C24.8614 285.813 24.2908 285.087 23.8758 284.153C23.4723 283.219 23.2706 282.113 23.2706 280.833Z" fill="#3A3A3A"/>
<path d="M37.7258 283.254C37.7258 283.731 37.833 284.15 38.0475 284.509C38.2688 284.862 38.5559 285.135 38.9086 285.329C39.2614 285.516 39.6453 285.609 40.0603 285.609C40.4061 285.609 40.7139 285.564 40.9837 285.474C41.2535 285.384 41.4956 285.263 41.71 285.111C41.9313 284.959 42.1215 284.793 42.2806 284.613V286.283C41.9832 286.519 41.6581 286.702 41.3053 286.833C40.9595 286.965 40.5203 287.031 39.9877 287.031C39.4343 287.031 38.919 286.941 38.4417 286.761C37.9714 286.581 37.5598 286.322 37.2071 285.983C36.8612 285.644 36.5915 285.246 36.3978 284.789C36.211 284.326 36.1177 283.814 36.1177 283.254C36.1177 282.694 36.211 282.185 36.3978 281.729C36.5915 281.265 36.8612 280.864 37.2071 280.525C37.5598 280.186 37.9714 279.927 38.4417 279.747C38.919 279.567 39.4343 279.477 39.9877 279.477C40.5203 279.477 40.9595 279.543 41.3053 279.674C41.6581 279.806 41.9832 279.989 42.2806 280.224V281.895C42.1215 281.715 41.9313 281.549 41.71 281.397C41.4956 281.245 41.2535 281.123 40.9837 281.034C40.7139 280.944 40.4061 280.899 40.0603 280.899C39.6453 280.899 39.2614 280.996 38.9086 281.189C38.5559 281.376 38.2688 281.646 38.0475 281.998C37.833 282.351 37.7258 282.77 37.7258 283.254ZM45.4585 282.808L44.9916 286.885H43.4457L44.5247 279.259L47.5647 283.949L50.6047 279.259L51.6837 286.885H50.1378L49.6709 282.808L47.5647 286.211L45.4585 282.808Z" fill="#3A3A3A"/>
<path d="M0.564596 13.6672L6.06354 7.9262C6.3748 7.59188 6.63995 7.28062 6.85898 6.99242C7.07802 6.70421 7.24518 6.41601 7.36046 6.1278C7.47574 5.8396 7.53338 5.53987 7.53338 5.2286C7.53338 5.00957 7.49303 4.7963 7.41234 4.58879C7.33164 4.38128 7.21059 4.19683 7.0492 4.03544C6.8878 3.87404 6.69183 3.74723 6.46126 3.65501C6.2307 3.55125 5.96555 3.49938 5.66582 3.49938C5.23927 3.49938 4.87037 3.60313 4.55911 3.81064C4.25938 4.00662 4.02305 4.28906 3.85013 4.65796C3.68873 5.02686 3.60804 5.4534 3.60804 5.93759H1.18712C1.18712 5.07297 1.36004 4.29482 1.70589 3.60313C2.05173 2.91144 2.55897 2.36385 3.22761 1.96036C3.90777 1.54535 4.7378 1.33784 5.71769 1.33784C6.44397 1.33784 7.07802 1.45312 7.61984 1.68369C8.1732 1.90272 8.62856 2.19669 8.98593 2.56559C9.35484 2.92297 9.62575 3.32069 9.79867 3.75876C9.98312 4.19683 10.0753 4.6349 10.0753 5.07297C10.0753 5.71855 9.91972 6.32378 9.60846 6.88866C9.2972 7.45354 8.88795 7.96655 8.38071 8.42768L5.23351 11.4019H10.3001V13.6672H0.564596ZM14.3622 7.61494C14.3622 8.22593 14.4199 8.78505 14.5351 9.29229C14.6504 9.788 14.8176 10.2203 15.0366 10.5892C15.2556 10.9466 15.515 11.2233 15.8148 11.4192C16.1145 11.6152 16.4488 11.7132 16.8177 11.7132C17.1981 11.7132 17.5382 11.6152 17.838 11.4192C18.1377 11.2233 18.3971 10.9466 18.6161 10.5892C18.8351 10.2203 19.0023 9.788 19.1176 9.29229C19.2329 8.78505 19.2905 8.22593 19.2905 7.61494C19.2905 7.00395 19.2329 6.45059 19.1176 5.95488C19.0023 5.44764 18.8351 5.01533 18.6161 4.65796C18.3971 4.28906 18.1377 4.00662 17.838 3.81064C17.5382 3.61466 17.1981 3.51667 16.8177 3.51667C16.4488 3.51667 16.1145 3.61466 15.8148 3.81064C15.515 4.00662 15.2556 4.28906 15.0366 4.65796C14.8176 5.01533 14.6504 5.44764 14.5351 5.95488C14.4199 6.45059 14.3622 7.00395 14.3622 7.61494ZM11.9586 7.61494C11.9586 6.33531 12.1603 5.2286 12.5638 4.29482C12.9788 3.36104 13.5495 2.64053 14.2757 2.13329C15.0136 1.61452 15.8609 1.35514 16.8177 1.35514C17.8091 1.35514 18.668 1.61452 19.3943 2.13329C20.1205 2.64053 20.6854 3.36104 21.0889 4.29482C21.4924 5.2286 21.6941 6.33531 21.6941 7.61494C21.6941 8.89457 21.4924 10.0013 21.0889 10.9351C20.6854 11.8688 20.1205 12.5951 19.3943 13.1139C18.668 13.6211 17.8091 13.8747 16.8177 13.8747C15.8609 13.8747 15.0136 13.6211 14.2757 13.1139C13.5495 12.5951 12.9788 11.8688 12.5638 10.9351C12.1603 10.0013 11.9586 8.89457 11.9586 7.61494ZM25.6468 7.61494C25.6468 8.22593 25.7044 8.78505 25.8197 9.29229C25.935 9.788 26.1021 10.2203 26.3212 10.5892C26.5402 10.9466 26.7996 11.2233 27.0993 11.4192C27.3991 11.6152 27.7334 11.7132 28.1023 11.7132C28.4827 11.7132 28.8228 11.6152 29.1225 11.4192C29.4223 11.2233 29.6816 10.9466 29.9007 10.5892C30.1197 10.2203 30.2869 9.788 30.4021 9.29229C30.5174 8.78505 30.5751 8.22593 30.5751 7.61494C30.5751 7.00395 30.5174 6.45059 30.4021 5.95488C30.2869 5.44764 30.1197 5.01533 29.9007 4.65796C29.6816 4.28906 29.4223 4.00662 29.1225 3.81064C28.8228 3.61466 28.4827 3.51667 28.1023 3.51667C27.7334 3.51667 27.3991 3.61466 27.0993 3.81064C26.7996 4.00662 26.5402 4.28906 26.3212 4.65796C26.1021 5.01533 25.935 5.44764 25.8197 5.95488C25.7044 6.45059 25.6468 7.00395 25.6468 7.61494ZM23.2431 7.61494C23.2431 6.33531 23.4449 5.2286 23.8484 4.29482C24.2634 3.36104 24.834 2.64053 25.5603 2.13329C26.2981 1.61452 27.1454 1.35514 28.1023 1.35514C29.0937 1.35514 29.9525 1.61452 30.6788 2.13329C31.4051 2.64053 31.97 3.36104 32.3735 4.29482C32.777 5.2286 32.9787 6.33531 32.9787 7.61494C32.9787 8.89457 32.777 10.0013 32.3735 10.9351C31.97 11.8688 31.4051 12.5951 30.6788 13.1139C29.9525 13.6211 29.0937 13.8747 28.1023 13.8747C27.1454 13.8747 26.2981 13.6211 25.5603 13.1139C24.834 12.5951 24.2634 11.8688 23.8484 10.9351C23.4449 10.0013 23.2431 8.89457 23.2431 7.61494Z" fill="#3A3A3A"/>
<path d="M37.929 10.0359C37.929 10.5131 38.0362 10.9316 38.2506 11.2913C38.4719 11.644 38.759 11.9173 39.1118 12.1109C39.4645 12.2977 39.8484 12.3911 40.2634 12.3911C40.6093 12.3911 40.9171 12.3461 41.1868 12.2562C41.4566 12.1663 41.6987 12.0452 41.9131 11.893C42.1344 11.7409 42.3247 11.5749 42.4837 11.395V13.0655C42.1863 13.3006 41.8612 13.4839 41.5085 13.6154C41.1626 13.7468 40.7234 13.8125 40.1908 13.8125C39.6374 13.8125 39.1221 13.7226 38.6449 13.5427C38.1745 13.3629 37.763 13.1035 37.4102 12.7646C37.0643 12.4257 36.7946 12.0279 36.6009 11.5714C36.4142 11.108 36.3208 10.5961 36.3208 10.0359C36.3208 9.47559 36.4142 8.9672 36.6009 8.51068C36.7946 8.04725 37.0643 7.64607 37.4102 7.30714C37.763 6.96821 38.1745 6.70882 38.6449 6.52898C39.1221 6.34914 39.6374 6.25922 40.1908 6.25922C40.7234 6.25922 41.1626 6.32494 41.5085 6.45636C41.8612 6.58778 42.1863 6.77108 42.4837 7.00625V8.67668C42.3247 8.49685 42.1344 8.33084 41.9131 8.17867C41.6987 8.0265 41.4566 7.90545 41.1868 7.81553C40.9171 7.72561 40.6093 7.68065 40.2634 7.68065C39.8484 7.68065 39.4645 7.77749 39.1118 7.97116C38.759 8.15792 38.4719 8.42768 38.2506 8.78044C38.0362 9.1332 37.929 9.55167 37.929 10.0359ZM45.6616 9.58972L45.1947 13.6672H43.6488L44.7278 6.04134L47.7678 10.731L50.8078 6.04134L51.8868 13.6672H50.3409L49.874 9.58972L47.7678 12.9928L45.6616 9.58972Z" fill="#3A3A3A"/>
</svg>
