<svg width="529" height="283" viewBox="0 0 529 283" fill="none" xmlns="http://www.w3.org/2000/svg">
<path d="M120.115 72.0165C120.197 77.472 119.648 82.7571 118.466 87.8719C117.283 92.9268 115.526 97.6905 113.196 102.163C110.925 106.635 108.109 110.755 104.748 114.524C101.446 118.232 97.6872 121.437 93.4707 124.139C89.3141 126.84 84.7593 128.978 79.8061 130.552C74.8521 132.066 69.5874 132.865 64.012 132.95C58.6165 133.032 53.4504 132.42 48.5136 131.116C43.6368 129.811 39.0515 127.961 34.7578 125.568C30.4632 123.114 26.5511 120.175 23.0213 116.751C19.5506 113.266 16.554 109.413 14.0316 105.194C11.5682 100.914 9.60986 96.3266 8.15655 91.4316C6.76319 86.5356 6.0261 81.4199 5.94529 76.0844C5.86629 70.8687 6.41858 65.7634 7.60217 60.7685C8.78484 55.7136 10.5116 50.9503 12.7825 46.4786C15.1133 42.006 17.9291 37.8858 21.23 34.1181C24.5309 30.3503 28.2292 27.0863 32.3249 24.3258C36.4805 21.5645 40.975 19.3977 45.8082 17.8254C50.6415 16.2531 55.7559 15.4261 61.1514 15.3444C69.8441 15.2127 77.7779 16.4418 84.9529 19.0314C92.1877 21.6202 98.3612 25.3944 103.473 30.3539C108.644 35.2526 112.663 41.2481 115.529 48.3403C118.453 55.3718 119.982 63.2638 120.115 72.0165ZM80.2233 74.9593C80.1843 72.3815 79.7569 69.8994 78.9413 67.5132C78.1846 65.0662 77.0728 62.9243 75.6059 61.0877C74.138 59.1911 72.3164 57.6896 70.1409 56.5832C68.0245 55.416 65.5875 54.8533 62.8298 54.895C60.0121 54.9377 57.5019 55.4854 55.2992 56.5382C53.0965 57.5909 51.1994 59.0288 49.608 60.8518C48.0757 62.614 46.908 64.7004 46.105 67.1111C45.3011 69.4619 44.9192 71.9562 44.9591 74.594C44.9973 77.1119 45.3951 79.6243 46.1526 82.1313C46.9102 84.6383 48.0238 86.9001 49.4934 88.9166C50.9631 90.9331 52.7566 92.5549 54.8739 93.7821C57.0512 95.0084 59.5487 95.6002 62.3663 95.5575C65.184 95.5148 67.6937 94.9371 69.8955 93.8244C72.1563 92.6509 74.052 91.1231 75.5826 89.241C77.1122 87.299 78.2781 85.0927 79.0802 82.622C79.8822 80.1513 80.2633 77.5971 80.2233 74.9593ZM235.248 33.7547C235.316 38.191 235.18 43.0801 234.841 48.422C234.502 53.7639 233.896 59.2898 233.023 64.9996C232.15 70.7093 230.979 76.5136 229.509 82.4123C228.099 88.2501 226.295 93.8841 224.099 99.3141C221.902 104.744 219.311 109.85 216.326 114.633C213.399 119.354 209.984 123.513 206.081 127.11C202.237 130.646 197.902 133.44 193.076 135.492C188.251 137.604 182.871 138.705 176.936 138.795C169.981 138.9 163.909 137.853 158.719 135.653C153.59 133.512 149.168 130.581 145.454 126.859C141.739 123.078 138.674 118.687 136.26 113.687C133.844 108.626 131.935 103.288 130.53 97.6731C129.125 91.9979 128.108 86.2268 127.48 80.3598C126.91 74.4321 126.584 68.7404 126.502 63.285C126.374 54.892 126.667 46.5226 127.381 38.1769C128.093 29.7711 129.165 21.39 130.598 13.0333L172.707 14.0145C171.231 23.4512 169.966 32.9446 168.911 42.4948C167.915 51.9842 167.49 61.5249 167.635 71.1169C167.651 72.136 167.704 73.6643 167.795 75.7017C167.945 77.6782 168.159 79.9236 168.437 82.4379C168.714 84.8922 169.082 87.4351 169.541 90.0665C170.06 92.6371 170.725 94.9956 171.538 97.142C172.35 99.2884 173.306 101.043 174.406 102.405C175.565 103.767 176.895 104.436 178.394 104.414C180.132 104.387 181.679 103.554 183.033 101.915C184.386 100.215 185.552 97.9791 186.529 95.2059C187.566 92.4319 188.448 89.2405 189.172 85.6317C189.897 82.0229 190.5 78.266 190.98 74.3611C191.461 70.4562 191.822 66.5531 192.062 62.6518C192.363 58.7496 192.578 55.1185 192.707 51.7586C192.896 48.3978 193.001 45.428 193.022 42.8492C193.043 40.2704 193.044 38.3516 193.024 37.0926C192.954 32.4165 192.793 27.7718 192.544 23.1584C192.353 18.4841 192.073 13.8411 191.703 9.22951L233.788 8.59208C234.633 16.8543 235.119 25.2418 235.248 33.7547ZM349.878 45.3305C349.948 50.0066 349.593 54.2694 348.812 58.1189C348.09 61.9075 346.884 65.4037 345.193 68.6074C343.503 71.8111 341.299 74.7827 338.582 77.5222C335.866 80.2617 332.577 82.8899 328.718 85.4069L350.697 123.211L310.351 131.737L295.922 93.639L284.777 94.1676L283.725 131.601L245.057 132.187C245.15 118.513 245.214 104.901 245.248 91.3484C245.343 77.7951 245.466 64.1815 245.619 50.5074C245.635 43.6114 245.651 36.7752 245.668 29.9991C245.686 23.2229 245.822 16.385 246.077 9.48529C250.25 7.86302 254.367 6.51145 258.428 5.43055C262.489 4.34965 266.554 3.50856 270.623 2.90726C274.75 2.24511 278.911 1.79233 283.104 1.54891C287.357 1.24464 291.702 1.05891 296.138 0.991718C302.972 0.888203 309.581 1.74752 315.965 3.56967C322.408 5.33096 328.116 8.0628 333.089 11.7652C338.062 15.4676 342.06 20.1142 345.083 25.705C348.166 31.2949 349.764 37.8367 349.878 45.3305ZM309.635 48.8183C309.597 46.3004 309.202 43.9977 308.451 41.9104C307.76 39.8221 306.713 38.039 305.312 36.5612C303.969 35.0225 302.272 33.8489 300.221 33.0405C298.229 32.1712 295.885 31.757 293.187 31.7978C291.988 31.816 290.82 31.9236 289.684 32.1207C288.547 32.2579 287.441 32.4845 286.366 32.8006L285.434 66.2745L287.592 66.2418C290.17 66.2027 292.773 65.8335 295.401 65.1341C298.088 64.4338 300.471 63.3783 302.548 61.9677C304.686 60.5562 306.397 58.7613 307.684 56.5831C309.03 54.404 309.68 51.8158 309.635 48.8183Z" fill="black"/>
<path fill-rule="evenodd" clip-rule="evenodd" d="M529 132.503L507.818 132.503L474.302 98.9085C469.423 94.0356 462.847 91.304 455.996 91.304C449.145 91.304 442.569 94.0356 437.689 98.9085L404.199 132.503L383 132.503L427.098 88.2787C443.073 72.2717 468.955 72.2717 484.919 88.2787L529 132.503ZM529 12L507.818 12L474.302 45.5948C469.423 50.4677 462.847 53.1993 455.996 53.1993C449.145 53.1993 442.569 50.4677 437.689 45.5948L404.199 12L383 12L427.098 56.2246C443.073 72.2316 468.955 72.2316 484.919 56.2246L529 12Z" fill="#CD2121"/>
<path d="M105.899 152.57L99.798 249.914L69.5602 251.241L69.8255 199.916L56.1654 241.294H44.4947L34.0175 204.292L33.8849 247.262L3.24924 248.19L4.57546 156.548L38.6593 155.222L52.1867 199.12L70.2233 152.57H105.899ZM147.972 155.885L140.677 246.201L112.694 247.66V157.742L147.972 155.885ZM221.874 213.974C221.874 220.03 220.813 225.335 218.691 229.888C216.613 234.398 213.74 238.155 210.071 241.161C206.446 244.167 202.18 246.422 197.272 247.925C192.41 249.428 187.171 250.18 181.557 250.18C179.391 250.18 177.003 249.892 174.395 249.318C171.831 248.743 169.223 248.036 166.571 247.196C163.918 246.311 161.354 245.383 158.878 244.411C156.447 243.394 154.281 242.443 152.38 241.559L155.298 214.239C159.055 216.494 163.211 218.218 167.764 219.411C172.362 220.561 176.871 221.135 181.292 221.135C182.131 221.135 183.148 221.113 184.342 221.069C185.535 220.981 186.663 220.782 187.724 220.472C188.829 220.119 189.757 219.61 190.509 218.947C191.26 218.284 191.636 217.334 191.636 216.096C191.636 215.256 191.371 214.548 190.84 213.974C190.31 213.355 189.625 212.869 188.785 212.515C187.945 212.117 186.994 211.83 185.933 211.653C184.872 211.432 183.833 211.277 182.817 211.189C181.8 211.1 180.849 211.056 179.965 211.056C179.081 211.056 178.374 211.056 177.843 211.056C174.042 211.056 170.571 210.393 167.433 209.067C164.338 207.741 161.664 205.906 159.409 203.563C157.199 201.176 155.474 198.369 154.237 195.141C152.999 191.87 152.38 188.334 152.38 184.532C152.38 179.315 153.419 174.651 155.497 170.54C157.619 166.385 160.426 162.87 163.918 159.997C167.455 157.079 171.5 154.847 176.053 153.299C180.606 151.752 185.314 150.978 190.177 150.978C192.343 150.978 194.576 151.067 196.875 151.244C199.173 151.376 201.45 151.641 203.705 152.039C206.003 152.437 208.236 152.946 210.402 153.564C212.568 154.183 214.624 154.957 216.569 155.885L214.049 182.808C211.043 181.791 207.882 180.951 204.567 180.288C201.295 179.58 198.09 179.227 194.952 179.227C194.377 179.227 193.625 179.249 192.697 179.293C191.813 179.293 190.862 179.359 189.846 179.492C188.873 179.58 187.878 179.735 186.862 179.956C185.845 180.177 184.939 180.487 184.143 180.885C183.347 181.238 182.706 181.725 182.22 182.343C181.734 182.962 181.513 183.692 181.557 184.532C181.601 185.504 181.955 186.3 182.618 186.919C183.325 187.494 184.209 187.958 185.27 188.311C186.375 188.621 187.569 188.842 188.851 188.975C190.177 189.107 191.481 189.196 192.763 189.24C194.045 189.24 195.239 189.24 196.344 189.24C197.449 189.196 198.356 189.218 199.063 189.306C202.599 189.527 205.782 190.279 208.612 191.561C211.441 192.843 213.828 194.545 215.773 196.667C217.763 198.789 219.266 201.33 220.282 204.292C221.343 207.21 221.874 210.437 221.874 213.974ZM294.715 213.974C294.715 220.03 293.654 225.335 291.532 229.888C289.454 234.398 286.581 238.155 282.912 241.161C279.287 244.167 275.021 246.422 270.114 247.925C265.251 249.428 260.012 250.18 254.398 250.18C252.232 250.18 249.845 249.892 247.236 249.318C244.672 248.743 242.064 248.036 239.412 247.196C236.759 246.311 234.195 245.383 231.72 244.411C229.288 243.394 227.122 242.443 225.221 241.559L228.139 214.239C231.897 216.494 236.052 218.218 240.605 219.411C245.203 220.561 249.712 221.135 254.133 221.135C254.973 221.135 255.99 221.113 257.183 221.069C258.377 220.981 259.504 220.782 260.565 220.472C261.67 220.119 262.599 219.61 263.35 218.947C264.102 218.284 264.477 217.334 264.477 216.096C264.477 215.256 264.212 214.548 263.682 213.974C263.151 213.355 262.466 212.869 261.626 212.515C260.786 212.117 259.836 211.83 258.775 211.653C257.714 211.432 256.675 211.277 255.658 211.189C254.641 211.1 253.691 211.056 252.807 211.056C251.922 211.056 251.215 211.056 250.685 211.056C246.883 211.056 243.413 210.393 240.274 209.067C237.179 207.741 234.505 205.906 232.25 203.563C230.04 201.176 228.316 198.369 227.078 195.141C225.84 191.87 225.221 188.334 225.221 184.532C225.221 179.315 226.26 174.651 228.338 170.54C230.46 166.385 233.267 162.87 236.759 159.997C240.296 157.079 244.341 154.847 248.894 153.299C253.448 151.752 258.156 150.978 263.018 150.978C265.185 150.978 267.417 151.067 269.716 151.244C272.015 151.376 274.291 151.641 276.546 152.039C278.845 152.437 281.077 152.946 283.243 153.564C285.41 154.183 287.465 154.957 289.41 155.885L286.89 182.808C283.884 181.791 280.724 180.951 277.408 180.288C274.137 179.58 270.932 179.227 267.793 179.227C267.218 179.227 266.467 179.249 265.538 179.293C264.654 179.293 263.704 179.359 262.687 179.492C261.714 179.58 260.72 179.735 259.703 179.956C258.686 180.177 257.78 180.487 256.984 180.885C256.188 181.238 255.547 181.725 255.061 182.343C254.575 182.962 254.354 183.692 254.398 184.532C254.442 185.504 254.796 186.3 255.459 186.919C256.166 187.494 257.051 187.958 258.111 188.311C259.217 188.621 260.41 188.842 261.692 188.975C263.018 189.107 264.323 189.196 265.605 189.24C266.887 189.24 268.08 189.24 269.185 189.24C270.291 189.196 271.197 189.218 271.904 189.306C275.441 189.527 278.624 190.279 281.453 191.561C284.282 192.843 286.669 194.545 288.615 196.667C290.604 198.789 292.107 201.33 293.124 204.292C294.185 207.21 294.715 210.437 294.715 213.974ZM336.125 155.885L328.831 246.201L300.848 247.66V157.742L336.125 155.885ZM423.024 202.436C423.024 206.459 422.56 210.349 421.632 214.106C420.703 217.82 419.355 221.312 417.587 224.584C415.863 227.855 413.741 230.861 411.221 233.602C408.745 236.298 405.938 238.619 402.799 240.564C399.705 242.51 396.323 244.035 392.654 245.14C388.985 246.201 385.094 246.731 380.983 246.731C377.004 246.731 373.203 246.223 369.578 245.206C365.997 244.189 362.637 242.775 359.498 240.962C356.36 239.106 353.508 236.895 350.944 234.331C348.424 231.723 346.258 228.85 344.446 225.711C342.677 222.528 341.285 219.124 340.268 215.499C339.296 211.874 338.809 208.094 338.809 204.16C338.809 200.314 339.273 196.556 340.202 192.887C341.13 189.173 342.456 185.681 344.18 182.41C345.949 179.138 348.071 176.132 350.546 173.391C353.022 170.651 355.785 168.286 358.835 166.296C361.93 164.307 365.267 162.76 368.848 161.654C372.429 160.549 376.209 159.997 380.187 159.997C386.597 159.997 392.433 160.991 397.693 162.981C402.998 164.97 407.507 167.821 411.221 171.535C414.978 175.204 417.874 179.669 419.908 184.93C421.985 190.146 423.024 195.981 423.024 202.436ZM393.582 204.16C393.582 202.259 393.295 200.424 392.72 198.656C392.19 196.843 391.394 195.252 390.333 193.882C389.272 192.467 387.946 191.34 386.354 190.5C384.807 189.616 383.017 189.173 380.983 189.173C378.905 189.173 377.049 189.549 375.413 190.301C373.777 191.052 372.363 192.091 371.169 193.417C370.02 194.699 369.136 196.225 368.517 197.993C367.898 199.717 367.588 201.552 367.588 203.497C367.588 205.353 367.853 207.21 368.384 209.067C368.914 210.923 369.71 212.603 370.771 214.106C371.832 215.609 373.136 216.825 374.684 217.754C376.275 218.682 378.11 219.146 380.187 219.146C382.265 219.146 384.122 218.748 385.757 217.952C387.437 217.113 388.852 216.007 390.001 214.637C391.151 213.222 392.035 211.609 392.654 209.796C393.273 207.984 393.582 206.105 393.582 204.16ZM519.207 154.161L514.433 244.079L479.686 247.262L461.119 199.12L458.201 248.19H428.361L430.748 154.161L463.904 152.57L486.847 200.314L487.908 155.222L519.207 154.161Z" fill="#CD2121"/>
</svg>
