<svg width="1112" height="914" viewBox="0 0 1112 914" fill="none" xmlns="http://www.w3.org/2000/svg">
<path opacity="0.3" fill-rule="evenodd" clip-rule="evenodd" d="M1111.27 0.06853L950.049 0.0685159L694.943 254.842C657.803 291.797 607.751 312.513 555.604 312.513C503.457 312.513 453.404 291.797 416.264 254.842L161.355 0.068447L-0.000610352 0.0684329L335.652 335.455C457.246 456.848 654.245 456.848 775.752 335.455L1111.27 0.06853ZM1111.27 913.932L950.048 913.932L694.943 659.158C657.803 622.203 607.75 601.487 555.603 601.487C503.456 601.487 453.404 622.204 416.264 659.158L161.354 913.932L-0.00101651 913.932L335.651 578.545C457.245 457.152 654.244 457.152 775.751 578.545L1111.27 913.932Z" fill="url(#paint0_linear_1738_52)"/>
<defs>
<linearGradient id="paint0_linear_1738_52" x1="555.636" y1="939.068" x2="555.636" y2="0.0684572" gradientUnits="userSpaceOnUse">
<stop offset="0.05" stop-opacity="0"/>
<stop offset="0.522389"/>
<stop offset="1" stop-opacity="0"/>
</linearGradient>
</defs>
</svg>
