<svg width="906" height="118" viewBox="0 0 906 118" fill="none" xmlns="http://www.w3.org/2000/svg">
<path d="M84.3984 4.07422L83.6367 36.3711L60.9375 37.2852L55.1484 109.496L23.0039 111.172L23.1562 38.9609L0.457031 40.1797L1.37109 4.22656L84.3984 4.07422ZM181.249 59.2227C181.249 63.8438 180.716 68.3125 179.65 72.6289C178.583 76.8945 177.035 80.9062 175.003 84.6641C173.023 88.4219 170.585 91.875 167.691 95.0234C164.847 98.1211 161.622 100.787 158.017 103.021C154.462 105.256 150.578 107.008 146.363 108.277C142.148 109.496 137.679 110.105 132.956 110.105C128.386 110.105 124.019 109.521 119.855 108.354C115.742 107.186 111.882 105.561 108.277 103.479C104.671 101.346 101.396 98.8066 98.4506 95.8613C95.5561 92.8652 93.0678 89.5645 90.9858 85.959C88.9545 82.3027 87.3549 78.3926 86.187 74.2285C85.0698 70.0645 84.5112 65.7227 84.5112 61.2031C84.5112 56.7852 85.0444 52.4688 86.1108 48.2539C87.1772 43.9883 88.7006 39.9766 90.6811 36.2188C92.7123 32.4609 95.1498 29.0078 97.9936 25.8594C100.837 22.7109 104.011 19.9941 107.515 17.709C111.07 15.4238 114.904 13.6465 119.017 12.377C123.13 11.1074 127.472 10.4727 132.042 10.4727C139.406 10.4727 146.109 11.6152 152.152 13.9004C158.246 16.1855 163.425 19.4609 167.691 23.7266C172.007 27.9414 175.333 33.0703 177.669 39.1133C180.056 45.1055 181.249 51.8086 181.249 59.2227ZM147.429 61.2031C147.429 59.0195 147.099 56.9121 146.439 54.8809C145.83 52.7988 144.915 50.9707 143.697 49.3965C142.478 47.7715 140.955 46.4766 139.126 45.5117C137.349 44.4961 135.292 43.9883 132.956 43.9883C130.57 43.9883 128.437 44.4199 126.558 45.2832C124.679 46.1465 123.054 47.3398 121.683 48.8633C120.363 50.3359 119.347 52.0879 118.636 54.1191C117.925 56.0996 117.57 58.207 117.57 60.4414C117.57 62.5742 117.874 64.707 118.484 66.8398C119.093 68.9727 120.007 70.9023 121.226 72.6289C122.445 74.3555 123.943 75.752 125.72 76.8184C127.548 77.8848 129.656 78.418 132.042 78.418C134.429 78.418 136.562 77.9609 138.441 77.0469C140.371 76.082 141.996 74.8125 143.316 73.2383C144.636 71.6133 145.652 69.7598 146.363 67.6777C147.074 65.5957 147.429 63.4375 147.429 61.2031ZM284.727 3.92188L248.013 54.6523L278.938 108.582L243.595 114.828L220.438 81.9219L219.22 116.352L187.532 117.57L189.97 0.875L225.466 2.85547L222.724 37.2852L246.337 0.875L284.727 3.92188ZM357.66 3.16016C357.356 7.93359 357.076 12.6563 356.823 17.3281C356.569 22 356.239 26.7227 355.832 31.4961L323.535 33.1719L322.774 42.7695H345.473L343.797 66.3828L320.946 67.1445L320.184 78.2656H339.075H352.481C352.176 83.8516 351.846 89.4121 351.491 94.9473C351.186 100.432 350.907 105.941 350.653 111.477L284.992 113L287.43 3.16016H357.66Z" fill="black"/>
<path d="M465.48 3.76953L459.996 107.059L420.082 110.715L398.754 55.4141L395.402 111.781H361.125L363.867 3.76953L401.953 1.94141L428.308 56.7852L429.527 4.98828L465.48 3.76953ZM566.368 59.2227C566.368 63.8438 565.835 68.3125 564.769 72.6289C563.702 76.8945 562.154 80.9062 560.122 84.6641C558.142 88.4219 555.704 91.875 552.81 95.0234C549.966 98.1211 546.741 100.787 543.136 103.021C539.581 105.256 535.696 107.008 531.482 108.277C527.267 109.496 522.798 110.105 518.075 110.105C513.505 110.105 509.138 109.521 504.974 108.354C500.861 107.186 497.001 105.561 493.396 103.479C489.79 101.346 486.515 98.8066 483.57 95.8613C480.675 92.8652 478.187 89.5645 476.105 85.959C474.073 82.3027 472.474 78.3926 471.306 74.2285C470.189 70.0645 469.63 65.7227 469.63 61.2031C469.63 56.7852 470.163 52.4688 471.23 48.2539C472.296 43.9883 473.82 39.9766 475.8 36.2188C477.831 32.4609 480.269 29.0078 483.112 25.8594C485.956 22.7109 489.13 19.9941 492.634 17.709C496.189 15.4238 500.023 13.6465 504.136 12.377C508.249 11.1074 512.591 10.4727 517.161 10.4727C524.525 10.4727 531.228 11.6152 537.271 13.9004C543.364 16.1855 548.544 19.4609 552.81 23.7266C557.126 27.9414 560.452 33.0703 562.788 39.1133C565.175 45.1055 566.368 51.8086 566.368 59.2227ZM532.548 61.2031C532.548 59.0195 532.218 56.9121 531.558 54.8809C530.948 52.7988 530.034 50.9707 528.816 49.3965C527.597 47.7715 526.073 46.4766 524.245 45.5117C522.468 44.4961 520.411 43.9883 518.075 43.9883C515.689 43.9883 513.556 44.4199 511.677 45.2832C509.798 46.1465 508.173 47.3398 506.802 48.8633C505.482 50.3359 504.466 52.0879 503.755 54.1191C503.044 56.0996 502.689 58.207 502.689 60.4414C502.689 62.5742 502.993 64.707 503.603 66.8398C504.212 68.9727 505.126 70.9023 506.345 72.6289C507.564 74.3555 509.062 75.752 510.839 76.8184C512.667 77.8848 514.775 78.418 517.161 78.418C519.548 78.418 521.681 77.9609 523.56 77.0469C525.489 76.082 527.114 74.8125 528.435 73.2383C529.755 71.6133 530.771 69.7598 531.482 67.6777C532.193 65.5957 532.548 63.4375 532.548 61.2031ZM691.022 1.94141L684.014 113.762L649.28 115.285L649.585 56.3281L633.893 103.859H620.487L608.452 61.3555L608.299 110.715L573.108 111.781L574.631 6.51172L613.784 4.98828L629.323 55.4141L650.042 1.94141H691.022ZM739.352 5.75L730.973 109.496L698.828 111.172V7.88281L739.352 5.75ZM820.816 5.90234L816.55 38.0469C815.078 37.6406 813.605 37.3613 812.132 37.209C810.66 37.0566 809.187 36.9805 807.714 36.9805C803.957 36.9805 800.376 37.4883 796.974 38.5039C793.572 39.4688 790.55 40.9668 787.91 42.998C785.32 45.0293 783.238 47.5684 781.664 50.6152C780.14 53.6621 779.378 57.2422 779.378 61.3555C779.378 63.9961 779.785 66.2812 780.597 68.2109C781.46 70.1406 782.654 71.7402 784.177 73.0098C785.701 74.2793 787.503 75.2188 789.585 75.8281C791.667 76.4375 793.953 76.7422 796.441 76.7422C798.32 76.7422 800.275 76.5391 802.306 76.1328C804.337 75.7266 806.343 75.1934 808.324 74.5332C810.304 73.873 812.234 73.1113 814.113 72.248C815.992 71.3848 817.718 70.4961 819.292 69.582L816.246 105.383C814.265 106.398 812.107 107.312 809.771 108.125C807.486 108.887 805.125 109.572 802.687 110.182C800.25 110.74 797.812 111.172 795.375 111.477C792.937 111.781 790.601 111.934 788.367 111.934C781.917 111.934 775.9 110.74 770.314 108.354C764.728 105.967 759.878 102.691 755.765 98.5273C751.652 94.3633 748.402 89.4629 746.015 83.8262C743.679 78.1387 742.511 72.0195 742.511 65.4688C742.511 56.7852 743.755 48.6094 746.244 40.9414C748.732 33.2227 752.388 26.4688 757.212 20.6797C762.037 14.8906 768.003 10.3203 775.113 6.96875C782.273 3.61719 790.5 1.94141 799.792 1.94141C803.296 1.94141 806.876 2.2207 810.533 2.7793C814.24 3.33789 817.667 4.37891 820.816 5.90234ZM905.175 72.4766C905.175 79.4336 903.956 85.5273 901.518 90.7578C899.132 95.9375 895.831 100.254 891.616 103.707C887.452 107.16 882.552 109.75 876.915 111.477C871.329 113.203 865.311 114.066 858.862 114.066C856.374 114.066 853.632 113.736 850.636 113.076C847.69 112.416 844.694 111.604 841.647 110.639C838.601 109.623 835.655 108.557 832.811 107.439C830.018 106.271 827.53 105.18 825.347 104.164L828.698 72.7812C833.015 75.3711 837.788 77.3516 843.018 78.7227C848.3 80.043 853.479 80.7031 858.558 80.7031C859.522 80.7031 860.69 80.6777 862.061 80.627C863.433 80.5254 864.727 80.2969 865.946 79.9414C867.216 79.5352 868.282 78.9512 869.145 78.1895C870.009 77.4277 870.44 76.3359 870.44 74.9141C870.44 73.9492 870.136 73.1367 869.526 72.4766C868.917 71.7656 868.13 71.207 867.165 70.8008C866.2 70.3438 865.108 70.0137 863.89 69.8105C862.671 69.5566 861.477 69.3789 860.31 69.2773C859.142 69.1758 858.05 69.125 857.034 69.125C856.018 69.125 855.206 69.125 854.597 69.125C850.229 69.125 846.243 68.3633 842.638 66.8398C839.083 65.3164 836.011 63.209 833.421 60.5176C830.882 57.7754 828.901 54.5508 827.479 50.8438C826.058 47.0859 825.347 43.0234 825.347 38.6562C825.347 32.6641 826.54 27.3066 828.927 22.584C831.364 17.8105 834.589 13.7734 838.601 10.4727C842.663 7.12109 847.31 4.55664 852.54 2.7793C857.77 1.00195 863.179 0.113281 868.765 0.113281C871.253 0.113281 873.817 0.214844 876.458 0.417969C879.099 0.570312 881.714 0.875 884.304 1.33203C886.944 1.78906 889.509 2.37305 891.997 3.08398C894.485 3.79492 896.847 4.68359 899.081 5.75L896.186 36.6758C892.733 35.5078 889.102 34.543 885.294 33.7812C881.536 32.9687 877.854 32.5625 874.249 32.5625C873.589 32.5625 872.726 32.5879 871.659 32.6387C870.643 32.6387 869.552 32.7148 868.384 32.8672C867.267 32.9687 866.124 33.1465 864.956 33.4004C863.788 33.6543 862.747 34.0098 861.833 34.4668C860.919 34.873 860.183 35.4316 859.624 36.1426C859.065 36.8535 858.811 37.6914 858.862 38.6562C858.913 39.7734 859.319 40.6875 860.081 41.3984C860.893 42.0586 861.909 42.5918 863.128 42.998C864.397 43.3535 865.768 43.6074 867.241 43.7598C868.765 43.9121 870.263 44.0137 871.735 44.0645C873.208 44.0645 874.579 44.0645 875.849 44.0645C877.118 44.0137 878.159 44.0391 878.972 44.1406C883.034 44.3945 886.69 45.2578 889.94 46.7305C893.19 48.2031 895.933 50.1582 898.167 52.5957C900.452 55.0332 902.179 57.9531 903.347 61.3555C904.565 64.707 905.175 68.4141 905.175 72.4766Z" fill="#CD2121"/>
</svg>
