<svg width="1439" height="213" viewBox="0 0 1439 213" fill="none" xmlns="http://www.w3.org/2000/svg">
<path d="M1108.04 138.555C1108.04 145.463 1106.75 151.414 1104.17 156.408C1101.68 161.402 1098.31 165.647 1094.06 169.142C1089.82 172.638 1084.91 175.509 1079.33 177.757C1073.84 179.921 1068.09 181.627 1062.1 182.875C1056.11 184.124 1050.07 184.956 1044 185.372C1038 185.788 1032.39 185.996 1027.14 185.996C1021.98 185.996 1016.61 185.788 1011.04 185.372C1005.54 185.039 1000.05 184.415 994.558 183.5C989.065 182.584 983.655 181.377 978.328 179.879C973.002 178.298 967.966 176.342 963.222 174.011L962.972 13.2099C967.633 11.2956 972.585 9.58935 977.829 8.0912C983.072 6.50982 988.399 5.21975 993.809 4.22099C999.302 3.13899 1004.75 2.3483 1010.16 1.84892C1015.57 1.2663 1020.82 0.974996 1025.89 0.974996C1031.8 0.974996 1037.75 1.34953 1043.75 2.09861C1049.82 2.84768 1055.65 4.09614 1061.23 5.84398C1066.8 7.59182 1072 9.88066 1076.83 12.7105C1081.66 15.4571 1085.86 18.8696 1089.44 22.9479C1093.1 27.0261 1095.93 31.7703 1097.93 37.1803C1100.01 42.5903 1101.05 48.8325 1101.05 55.9071C1101.05 60.568 1100.39 64.9376 1099.05 69.0159C1097.72 73.0942 1095.81 76.7564 1093.31 80.0024C1090.81 83.2484 1087.78 86.0366 1084.2 88.367C1080.62 90.6143 1076.58 92.2789 1072.09 93.3609C1077.5 94.7758 1082.41 96.8565 1086.82 99.6032C1091.31 102.35 1095.1 105.679 1098.18 109.591C1101.34 113.503 1103.76 117.914 1105.42 122.824C1107.17 127.735 1108.04 132.979 1108.04 138.555ZM1044.62 67.3929C1044.62 64.9793 1044.12 62.9401 1043.12 61.2755C1042.12 59.5277 1040.88 58.1127 1039.38 57.0307C1037.96 55.9487 1036.38 55.1581 1034.63 54.6587C1032.97 54.1593 1031.47 53.9096 1030.14 53.9096C1028.47 53.9096 1026.85 54.1593 1025.27 54.6587C1023.69 55.1581 1022.15 55.7407 1020.65 56.4065L1019.9 84.1223C1021.82 84.1223 1024.19 83.9558 1027.02 83.6229C1029.85 83.29 1032.55 82.5825 1035.13 81.5005C1037.8 80.3353 1040.04 78.6707 1041.87 76.5067C1043.71 74.2595 1044.62 71.2215 1044.62 67.3929ZM1026.89 108.093C1024.48 108.093 1022.15 108.342 1019.9 108.842L1019.4 137.307C1020.65 137.556 1021.86 137.806 1023.02 138.056C1024.27 138.222 1025.48 138.305 1026.64 138.305C1028.39 138.305 1030.31 138.139 1032.39 137.806C1034.47 137.39 1036.42 136.641 1038.25 135.559C1040.09 134.394 1041.58 132.854 1042.75 130.939C1044 129.025 1044.62 126.487 1044.62 123.324C1044.62 120.161 1044 117.581 1042.75 115.583C1041.58 113.586 1040.13 112.046 1038.38 110.964C1036.63 109.799 1034.72 109.05 1032.64 108.717C1030.56 108.301 1028.64 108.093 1026.89 108.093ZM1266.66 44.1716C1266.66 50.3307 1266.37 57.114 1265.78 64.5215C1265.2 71.929 1264.24 79.5862 1262.91 87.4931C1261.58 95.4 1259.83 103.432 1257.67 111.588C1255.59 119.662 1252.97 127.444 1249.8 134.935C1246.64 142.425 1242.94 149.458 1238.69 156.033C1234.53 162.525 1229.7 168.227 1224.21 173.137C1218.8 177.965 1212.72 181.752 1205.98 184.498C1199.24 187.328 1191.75 188.743 1183.51 188.743C1173.86 188.743 1165.45 187.162 1158.29 183.999C1151.22 180.919 1145.14 176.758 1140.06 171.514C1134.99 166.188 1130.82 160.029 1127.58 153.037C1124.33 145.963 1121.79 138.513 1119.96 130.69C1118.13 122.783 1116.84 114.751 1116.09 106.595C1115.43 98.3547 1115.09 90.4478 1115.09 82.8738C1115.09 71.2215 1115.68 59.6109 1116.84 48.0418C1118.01 36.3896 1119.67 24.7789 1121.84 13.2099L1180.26 15.4571C1178.02 28.5243 1176.06 41.6747 1174.4 54.9084C1172.81 68.0588 1172.02 81.2924 1172.02 94.6093C1172.02 96.0242 1172.07 98.1466 1172.15 100.976C1172.32 103.723 1172.57 106.844 1172.9 110.34C1173.23 113.752 1173.69 117.29 1174.27 120.952C1174.94 124.531 1175.81 127.818 1176.89 130.815C1177.98 133.811 1179.27 136.266 1180.76 138.18C1182.34 140.095 1184.18 141.052 1186.26 141.052C1188.67 141.052 1190.83 139.928 1192.75 137.681C1194.66 135.351 1196.33 132.271 1197.74 128.443C1199.24 124.614 1200.53 120.203 1201.61 115.209C1202.69 110.215 1203.61 105.013 1204.36 99.6032C1205.11 94.1932 1205.69 88.7832 1206.11 83.3732C1206.61 77.9632 1206.98 72.9278 1207.23 68.2669C1207.56 63.606 1207.77 59.486 1207.85 55.9071C1207.94 52.3282 1207.98 49.6648 1207.98 47.917C1207.98 41.425 1207.85 34.9747 1207.61 28.5659C1207.44 22.0739 1207.15 15.6236 1206.73 9.21482H1265.16C1266.16 20.7006 1266.66 32.3529 1266.66 44.1716ZM1438.13 13.959L1369.47 109.841L1366.22 187.994H1307.04L1308.54 110.34L1272.83 17.7043L1336.51 9.7142L1346.49 63.6476L1378.2 9.7142L1438.13 13.959Z" fill="white"/>
<path d="M154.814 183L92.3911 185.996L91.8918 128.318H63.1772L61.4294 183H5.4985L10.2426 7.46698L69.6692 10.2136L65.9238 99.8528H93.6396L93.8893 3.47191L150.819 4.97006L154.814 183ZM323.541 94.859C323.541 102.433 322.667 109.757 320.919 116.832C319.171 123.823 316.632 130.398 313.303 136.557C310.057 142.717 306.062 148.376 301.318 153.537C296.657 158.614 291.372 162.983 285.463 166.645C279.636 170.307 273.269 173.179 266.361 175.26C259.453 177.257 252.129 178.256 244.388 178.256C236.898 178.256 229.74 177.299 222.915 175.385C216.173 173.47 209.848 170.807 203.938 167.394C198.029 163.899 192.661 159.737 187.833 154.91C183.089 149.999 179.011 144.589 175.598 138.68C172.269 132.687 169.647 126.279 167.733 119.454C165.902 112.629 164.986 105.513 164.986 98.105C164.986 90.8639 165.86 83.7894 167.608 76.8812C169.356 69.8899 171.853 63.3146 175.099 57.1556C178.428 50.9965 182.423 45.3369 187.084 40.1766C191.745 35.0163 196.947 30.5634 202.69 26.8181C208.516 23.0727 214.8 20.1596 221.542 18.0789C228.283 15.9981 235.399 14.9577 242.89 14.9577C254.959 14.9577 265.945 16.8304 275.85 20.5758C285.837 24.3212 294.327 29.6895 301.318 36.6809C308.393 43.589 313.844 51.9953 317.673 61.8997C321.585 71.7209 323.541 82.7074 323.541 94.859ZM268.109 98.105C268.109 94.5261 267.568 91.072 266.486 87.7428C265.487 84.3304 263.989 81.3341 261.992 78.7539C259.994 76.0905 257.497 73.9682 254.501 72.3868C251.588 70.7222 248.217 69.8899 244.388 69.8899C240.477 69.8899 236.981 70.5973 233.901 72.0122C230.822 73.4272 228.158 75.3831 225.911 77.88C223.747 80.2937 222.083 83.1651 220.917 86.4943C219.752 89.7403 219.17 93.1944 219.17 96.8565C219.17 100.352 219.669 103.848 220.668 107.344C221.666 110.839 223.165 114.002 225.162 116.832C227.16 119.662 229.615 121.951 232.528 123.698C235.524 125.446 238.978 126.32 242.89 126.32C246.802 126.32 250.298 125.571 253.377 124.073C256.54 122.492 259.203 120.411 261.367 117.831C263.531 115.167 265.196 112.129 266.361 108.717C267.526 105.304 268.109 101.767 268.109 98.105ZM555.564 9.7142L526.35 182.75L455.438 184.249L440.206 94.6093L424.975 177.757L354.063 180.254L324.599 9.7142L386.523 4.22099L399.007 107.843L415.737 4.22099H464.427L483.902 109.091L493.89 4.22099L555.564 9.7142Z" fill="white"/>
<path d="M753.331 4.47068L752.082 57.4053L714.878 58.9034L705.39 177.257L652.705 180.004L652.955 61.65L615.751 63.6476L617.249 4.72037L753.331 4.47068ZM912.07 94.859C912.07 102.433 911.196 109.757 909.448 116.832C907.7 123.823 905.161 130.398 901.832 136.557C898.586 142.717 894.591 148.376 889.847 153.537C885.186 158.614 879.901 162.983 873.992 166.645C868.165 170.307 861.798 173.179 854.89 175.26C847.982 177.257 840.658 178.256 832.917 178.256C825.427 178.256 818.269 177.299 811.444 175.385C804.702 173.47 798.377 170.807 792.467 167.394C786.558 163.899 781.19 159.737 776.362 154.91C771.618 149.999 767.54 144.589 764.127 138.68C760.798 132.687 758.176 126.279 756.262 119.454C754.431 112.629 753.515 105.513 753.515 98.105C753.515 90.8639 754.389 83.7894 756.137 76.8812C757.885 69.8899 760.382 63.3146 763.628 57.1556C766.957 50.9965 770.952 45.3369 775.613 40.1766C780.274 35.0163 785.476 30.5634 791.219 26.8181C797.045 23.0727 803.329 20.1596 810.071 18.0789C816.812 15.9981 823.928 14.9577 831.419 14.9577C843.488 14.9577 854.474 16.8304 864.378 20.5758C874.366 24.3212 882.856 29.6895 889.847 36.6809C896.922 43.589 902.373 51.9953 906.202 61.8997C910.114 71.7209 912.07 82.7074 912.07 94.859ZM856.638 98.105C856.638 94.5261 856.097 91.072 855.015 87.7428C854.016 84.3304 852.518 81.3341 850.521 78.7539C848.523 76.0905 846.026 73.9682 843.03 72.3868C840.117 70.7222 836.746 69.8899 832.917 69.8899C829.005 69.8899 825.51 70.5973 822.43 72.0122C819.351 73.4272 816.687 75.3831 814.44 77.88C812.276 80.2937 810.612 83.1651 809.446 86.4943C808.281 89.7403 807.698 93.1944 807.698 96.8565C807.698 100.352 808.198 103.848 809.197 107.344C810.195 110.839 811.694 114.002 813.691 116.832C815.689 119.662 818.144 121.951 821.057 123.698C824.053 125.446 827.507 126.32 831.419 126.32C835.331 126.32 838.827 125.571 841.906 124.073C845.069 122.492 847.732 120.411 849.896 117.831C852.06 115.167 853.725 112.129 854.89 108.717C856.055 105.304 856.638 101.767 856.638 98.105Z" fill="#CD2121"/>
</svg>
