<svg width="95" height="30" viewBox="0 0 95 30" fill="none" xmlns="http://www.w3.org/2000/svg">
<path d="M25.9282 1.60371L18.2537 14.9456L24.7869 26.5557L16.5614 29.1139L13.0193 21.0852L8.84748 29.1533L0.346477 26.0835L7.58807 14.6701L0.976181 2.66634L9.98882 0.50173L13.2161 8.41239L16.6401 0.50173L25.9282 1.60371ZM45.0059 0.816582C44.9272 2.04975 44.855 3.2698 44.7894 4.47674C44.7238 5.68367 44.6386 6.90372 44.5336 8.13689L36.19 8.56982L35.9932 11.0493H41.8574L41.4244 17.1495L35.521 17.3463L35.3242 20.2193H40.2044H43.6678C43.589 21.6624 43.5038 23.0989 43.4119 24.5289C43.3332 25.9457 43.2611 27.3691 43.1955 28.7991L26.2328 29.1926L26.8625 0.816582H45.0059ZM69.1606 10.2228C69.1606 11.2461 69.0687 12.1775 68.8851 13.0171C68.7145 13.8436 68.439 14.6045 68.0586 15.2998C67.6781 15.9951 67.1862 16.6379 66.5827 17.2282C65.9792 17.8186 65.2511 18.3827 64.3984 18.9206L69.0818 27.2642L60.2266 28.9958L57.1962 20.6129L54.7561 20.6916L54.4019 28.8778H45.9402C46.0058 25.8867 46.0648 22.9087 46.1173 19.9438C46.1829 16.979 46.2551 14.001 46.3338 11.0099C46.36 9.50125 46.3862 8.00571 46.4125 6.52328C46.4387 5.04085 46.4912 3.5453 46.5699 2.03663C47.4882 1.69554 48.3934 1.41349 49.2855 1.19047C50.1776 0.967449 51.0697 0.796904 51.9618 0.678835C52.867 0.547646 53.7787 0.462374 54.697 0.423017C55.6285 0.370542 56.5796 0.344304 57.5504 0.344304C59.0459 0.344304 60.489 0.554206 61.8796 0.974009C63.2833 1.38069 64.523 1.99728 65.5988 2.82376C66.6745 3.65025 67.5338 4.68008 68.1766 5.91325C68.8326 7.14642 69.1606 8.58293 69.1606 10.2228ZM60.3447 10.8525C60.3447 10.3015 60.266 9.79643 60.1086 9.33727C59.9642 8.87811 59.7412 8.48454 59.4395 8.15657C59.1509 7.81548 58.7836 7.55311 58.3375 7.36944C57.9046 7.17266 57.393 7.07427 56.8026 7.07427C56.5402 7.07427 56.2844 7.09395 56.0352 7.1333C55.7859 7.15954 55.5432 7.20546 55.3071 7.27105L54.9922 14.5914H55.4645C56.0286 14.5914 56.5993 14.5192 57.1765 14.3749C57.7668 14.2306 58.2916 14.0076 58.7508 13.7058C59.223 13.4041 59.6035 13.0171 59.8921 12.5448C60.1938 12.0725 60.3447 11.5084 60.3447 10.8525ZM94.9879 15.2998C94.9879 16.4936 94.8501 17.6481 94.5746 18.7632C94.2991 19.8651 93.899 20.9015 93.3743 21.8723C92.8626 22.8431 92.2329 23.7352 91.4851 24.5486C90.7505 25.3488 89.9174 26.0375 88.986 26.6148C88.0677 27.192 87.0641 27.6446 85.9752 27.9726C84.8864 28.2874 83.7319 28.4449 82.5119 28.4449C81.3312 28.4449 80.2029 28.294 79.1272 27.9923C78.0646 27.6905 77.0675 27.2707 76.1361 26.7328C75.2047 26.1819 74.3585 25.5259 73.5976 24.765C72.8498 23.991 72.207 23.1383 71.6691 22.2068C71.1444 21.2623 70.7311 20.2521 70.4294 19.1764C70.1408 18.1007 69.9965 16.979 69.9965 15.8114C69.9965 14.6701 70.1342 13.555 70.4097 12.4661C70.6852 11.3641 71.0788 10.3277 71.5904 9.35695C72.1152 8.38615 72.7449 7.49407 73.4795 6.6807C74.2142 5.86733 75.0341 5.16548 75.9393 4.57513C76.8576 3.98478 77.8481 3.52562 78.9107 3.19765C79.9734 2.86968 81.095 2.70569 82.2757 2.70569C84.1779 2.70569 85.9096 3.00087 87.4708 3.59122C89.045 4.18156 90.3832 5.02773 91.4851 6.12971C92.6002 7.21857 93.4595 8.54358 94.063 10.1047C94.6796 11.6527 94.9879 13.3844 94.9879 15.2998ZM86.2507 15.8114C86.2507 15.2473 86.1655 14.7029 85.9949 14.1781C85.8375 13.6402 85.6013 13.168 85.2865 12.7613C84.9716 12.3415 84.5781 12.007 84.1058 11.7577C83.6466 11.4953 83.1153 11.3641 82.5119 11.3641C81.8953 11.3641 81.3443 11.4756 80.8589 11.6987C80.3735 11.9217 79.9537 12.23 79.5995 12.6235C79.2584 13.004 78.996 13.4566 78.8123 13.9813C78.6287 14.493 78.5369 15.0374 78.5369 15.6146C78.5369 16.1656 78.6156 16.7166 78.773 17.2676C78.9304 17.8186 79.1666 18.3171 79.4814 18.7632C79.7963 19.2092 80.1833 19.57 80.6424 19.8455C81.1147 20.121 81.6591 20.2587 82.2757 20.2587C82.8923 20.2587 83.4433 20.1406 83.9287 19.9045C84.4272 19.6552 84.847 19.3273 85.1881 18.9206C85.5292 18.5008 85.7916 18.0219 85.9752 17.4841C86.1589 16.9462 86.2507 16.3886 86.2507 15.8114Z" fill="white"/>
</svg>
