<svg width="38" height="31" viewBox="0 0 38 31" fill="none" xmlns="http://www.w3.org/2000/svg">
<path fill-rule="evenodd" clip-rule="evenodd" d="M37.6113 0L32.2702 -2.33466e-07L23.819 8.47109C22.5886 9.69982 20.9305 10.3886 19.2029 10.3886C17.4754 10.3886 15.8172 9.69982 14.5869 8.47109L6.14214 -1.37556e-06L0.796711 -1.60922e-06L11.9163 11.1514C15.9445 15.1877 22.4708 15.1877 26.4961 11.1514L37.6113 0ZM37.6113 30.3855L32.2702 30.3855L23.819 21.9144C22.5886 20.6857 20.9305 19.9969 19.2029 19.9969C17.4754 19.9969 15.8172 20.6857 14.5869 21.9144L6.14214 30.3855L0.79671 30.3855L11.9163 19.234C15.9445 15.1978 22.4708 15.1978 26.4961 19.234L37.6113 30.3855Z" fill="white"/>
</svg>
