<svg width="95" height="30" viewBox="0 0 95 30" fill="none" xmlns="http://www.w3.org/2000/svg">
<path d="M25.7427 1.60371L18.0681 14.9456L24.6013 26.5557L16.3758 29.1139L12.8337 21.0852L8.66194 29.1533L0.16093 26.0835L7.40253 14.6701L0.790634 2.66634L9.80328 0.50173L13.0305 8.41239L16.4545 0.50173L25.7427 1.60371ZM44.8203 0.816582C44.7416 2.04975 44.6695 3.2698 44.6039 4.47674C44.5383 5.68367 44.453 6.90372 44.3481 8.13689L36.0045 8.56982L35.8077 11.0493H41.6718L41.2389 17.1495L35.3354 17.3463L35.1386 20.2193H40.0188H43.4822C43.4035 21.6624 43.3182 23.0989 43.2264 24.5289C43.1477 25.9457 43.0755 27.3691 43.0099 28.7991L26.0473 29.1926L26.677 0.816582H44.8203ZM68.975 10.2228C68.975 11.2461 68.8832 12.1775 68.6995 13.0171C68.529 13.8436 68.2535 14.6045 67.873 15.2998C67.4926 15.9951 67.0006 16.6379 66.3972 17.2282C65.7937 17.8186 65.0656 18.3827 64.2129 18.9206L68.8963 27.2642L60.0411 28.9958L57.0106 20.6129L54.5705 20.6916L54.2163 28.8778H45.7547C45.8203 25.8867 45.8793 22.9087 45.9318 19.9438C45.9974 16.979 46.0695 14.001 46.1482 11.0099C46.1745 9.50125 46.2007 8.00571 46.2269 6.52328C46.2532 5.04085 46.3057 3.5453 46.3844 2.03663C47.3027 1.69554 48.2079 1.41349 49.1 1.19047C49.992 0.967449 50.8841 0.796904 51.7762 0.678835C52.6814 0.547646 53.5932 0.462374 54.5115 0.423017C55.4429 0.370542 56.394 0.344304 57.3648 0.344304C58.8604 0.344304 60.3035 0.554206 61.694 0.974009C63.0978 1.38069 64.3375 1.99728 65.4132 2.82376C66.489 3.65025 67.3483 4.68008 67.9911 5.91325C68.647 7.14642 68.975 8.58293 68.975 10.2228ZM60.1591 10.8525C60.1591 10.3015 60.0804 9.79643 59.923 9.33727C59.7787 8.87811 59.5557 8.48454 59.2539 8.15657C58.9653 7.81548 58.598 7.55311 58.152 7.36944C57.719 7.17266 57.2074 7.07427 56.6171 7.07427C56.3547 7.07427 56.0989 7.09395 55.8496 7.1333C55.6003 7.15954 55.3577 7.20546 55.1215 7.27105L54.8067 14.5914H55.2789C55.843 14.5914 56.4137 14.5192 56.9909 14.3749C57.5813 14.2306 58.106 14.0076 58.5652 13.7058C59.0375 13.4041 59.4179 13.0171 59.7065 12.5448C60.0083 12.0725 60.1591 11.5084 60.1591 10.8525ZM94.8023 15.2998C94.8023 16.4936 94.6646 17.6481 94.3891 18.7632C94.1136 19.8651 93.7135 20.9015 93.1887 21.8723C92.6771 22.8431 92.0474 23.7352 91.2996 24.5486C90.5649 25.3488 89.7319 26.0375 88.8005 26.6148C87.8821 27.192 86.8785 27.6446 85.7897 27.9726C84.7008 28.2874 83.5464 28.4449 82.3263 28.4449C81.1456 28.4449 80.0174 28.294 78.9417 27.9923C77.879 27.6905 76.882 27.2707 75.9506 26.7328C75.0191 26.1819 74.173 25.5259 73.4121 24.765C72.6643 23.991 72.0215 23.1383 71.4836 22.2068C70.9588 21.2623 70.5456 20.2521 70.2439 19.1764C69.9552 18.1007 69.8109 16.979 69.8109 15.8114C69.8109 14.6701 69.9487 13.555 70.2242 12.4661C70.4997 11.3641 70.8932 10.3277 71.4049 9.35695C71.9296 8.38615 72.5593 7.49407 73.294 6.6807C74.0286 5.86733 74.8486 5.16548 75.7538 4.57513C76.6721 3.98478 77.6626 3.52562 78.7252 3.19765C79.7878 2.86968 80.9095 2.70569 82.0902 2.70569C83.9924 2.70569 85.7241 3.00087 87.2852 3.59122C88.8595 4.18156 90.1976 5.02773 91.2996 6.12971C92.4147 7.21857 93.274 8.54358 93.8774 10.1047C94.494 11.6527 94.8023 13.3844 94.8023 15.2998ZM86.0652 15.8114C86.0652 15.2473 85.9799 14.7029 85.8094 14.1781C85.6519 13.6402 85.4158 13.168 85.1009 12.7613C84.7861 12.3415 84.3925 12.007 83.9202 11.7577C83.4611 11.4953 82.9298 11.3641 82.3263 11.3641C81.7097 11.3641 81.1587 11.4756 80.6733 11.6987C80.1879 11.9217 79.7681 12.23 79.4139 12.6235C79.0728 13.004 78.8105 13.4566 78.6268 13.9813C78.4431 14.493 78.3513 15.0374 78.3513 15.6146C78.3513 16.1656 78.43 16.7166 78.5874 17.2676C78.7449 17.8186 78.981 18.3171 79.2959 18.7632C79.6107 19.2092 79.9977 19.57 80.4569 19.8455C80.9292 20.121 81.4736 20.2587 82.0902 20.2587C82.7068 20.2587 83.2577 20.1406 83.7431 19.9045C84.2417 19.6552 84.6615 19.3273 85.0026 18.9206C85.3436 18.5008 85.606 18.0219 85.7897 17.4841C85.9733 16.9462 86.0652 16.3886 86.0652 15.8114Z" fill="#E73838"/>
</svg>
