<svg width="550" height="237" viewBox="0 0 550 237" fill="none" xmlns="http://www.w3.org/2000/svg">
<path d="M71.1875 59.75C71.1875 65.4583 70.1875 70.4583 68.1875 74.75C66.2292 79 63.5208 82.5417 60.0625 85.375C56.6458 88.2083 52.625 90.3333 48 91.75C43.4167 93.1667 38.4792 93.875 33.1875 93.875C31.1458 93.875 28.8958 93.6042 26.4375 93.0625C24.0208 92.5208 21.5625 91.8542 19.0625 91.0625C16.5625 90.2292 14.1458 89.3542 11.8125 88.4375C9.52083 87.4792 7.47917 86.5833 5.6875 85.75L8.4375 60C11.9792 62.125 15.8958 63.75 20.1875 64.875C24.5208 65.9583 28.7708 66.5 32.9375 66.5C33.7292 66.5 34.6875 66.4792 35.8125 66.4375C36.9375 66.3542 38 66.1667 39 65.875C40.0417 65.5417 40.9167 65.0625 41.625 64.4375C42.3333 63.8125 42.6875 62.9167 42.6875 61.75C42.6875 60.9583 42.4375 60.2917 41.9375 59.75C41.4375 59.1667 40.7917 58.7083 40 58.375C39.2083 58 38.3125 57.7292 37.3125 57.5625C36.3125 57.3542 35.3333 57.2083 34.375 57.125C33.4167 57.0417 32.5208 57 31.6875 57C30.8542 57 30.1875 57 29.6875 57C26.1042 57 22.8333 56.375 19.875 55.125C16.9583 53.875 14.4375 52.1458 12.3125 49.9375C10.2292 47.6875 8.60417 45.0417 7.4375 42C6.27083 38.9167 5.6875 35.5833 5.6875 32C5.6875 27.0833 6.66667 22.6875 8.625 18.8125C10.625 14.8958 13.2708 11.5833 16.5625 8.875C19.8958 6.125 23.7083 4.02083 28 2.5625C32.2917 1.10417 36.7292 0.375 41.3125 0.375C43.3542 0.375 45.4583 0.458333 47.625 0.625C49.7917 0.75 51.9375 1 54.0625 1.375C56.2292 1.75 58.3333 2.22917 60.375 2.8125C62.4167 3.39583 64.3542 4.125 66.1875 5L63.8125 30.375C60.9792 29.4167 58 28.625 54.875 28C51.7917 27.3333 48.7708 27 45.8125 27C45.2708 27 44.5625 27.0208 43.6875 27.0625C42.8542 27.0625 41.9583 27.125 41 27.25C40.0833 27.3333 39.1458 27.4792 38.1875 27.6875C37.2292 27.8958 36.375 28.1875 35.625 28.5625C34.875 28.8958 34.2708 29.3542 33.8125 29.9375C33.3542 30.5208 33.1458 31.2083 33.1875 32C33.2292 32.9167 33.5625 33.6667 34.1875 34.25C34.8542 34.7917 35.6875 35.2292 36.6875 35.5625C37.7292 35.8542 38.8542 36.0625 40.0625 36.1875C41.3125 36.3125 42.5417 36.3958 43.75 36.4375C44.9583 36.4375 46.0833 36.4375 47.125 36.4375C48.1667 36.3958 49.0208 36.4167 49.6875 36.5C53.0208 36.7083 56.0208 37.4167 58.6875 38.625C61.3542 39.8333 63.6042 41.4375 65.4375 43.4375C67.3125 45.4375 68.7292 47.8333 69.6875 50.625C70.6875 53.375 71.1875 56.4167 71.1875 59.75ZM141.03 3.625L140.405 30.125L121.78 30.875L117.03 90.125L90.655 91.5L90.78 32.25L72.155 33.25L72.905 3.75L141.03 3.625ZM220.497 48.875C220.497 52.6667 220.06 56.3333 219.185 59.875C218.31 63.375 217.039 66.6667 215.372 69.75C213.747 72.8333 211.747 75.6667 209.372 78.25C207.039 80.7917 204.393 82.9792 201.435 84.8125C198.518 86.6458 195.331 88.0833 191.872 89.125C188.414 90.125 184.747 90.625 180.872 90.625C177.122 90.625 173.539 90.1458 170.122 89.1875C166.747 88.2292 163.581 86.8958 160.622 85.1875C157.664 83.4375 154.977 81.3542 152.56 78.9375C150.185 76.4792 148.143 73.7708 146.435 70.8125C144.768 67.8125 143.456 64.6042 142.497 61.1875C141.581 57.7708 141.122 54.2083 141.122 50.5C141.122 46.875 141.56 43.3333 142.435 39.875C143.31 36.375 144.56 33.0833 146.185 30C147.852 26.9167 149.852 24.0833 152.185 21.5C154.518 18.9167 157.122 16.6875 159.997 14.8125C162.914 12.9375 166.06 11.4792 169.435 10.4375C172.81 9.39583 176.372 8.875 180.122 8.875C186.164 8.875 191.664 9.8125 196.622 11.6875C201.622 13.5625 205.872 16.25 209.372 19.75C212.914 23.2083 215.643 27.4167 217.56 32.375C219.518 37.2917 220.497 42.7917 220.497 48.875ZM192.747 50.5C192.747 48.7083 192.477 46.9792 191.935 45.3125C191.435 43.6042 190.685 42.1042 189.685 40.8125C188.685 39.4792 187.435 38.4167 185.935 37.625C184.477 36.7917 182.789 36.375 180.872 36.375C178.914 36.375 177.164 36.7292 175.622 37.4375C174.081 38.1458 172.747 39.125 171.622 40.375C170.539 41.5833 169.706 43.0208 169.122 44.6875C168.539 46.3125 168.247 48.0417 168.247 49.875C168.247 51.625 168.497 53.375 168.997 55.125C169.497 56.875 170.247 58.4583 171.247 59.875C172.247 61.2917 173.477 62.4375 174.935 63.3125C176.435 64.1875 178.164 64.625 180.122 64.625C182.081 64.625 183.831 64.25 185.372 63.5C186.956 62.7083 188.289 61.6667 189.372 60.375C190.456 59.0417 191.289 57.5208 191.872 55.8125C192.456 54.1042 192.747 52.3333 192.747 50.5ZM299.402 32.75C299.402 36 299.111 38.9583 298.527 41.625C297.986 44.25 297.111 46.6667 295.902 48.875C294.694 51.0833 293.132 53.125 291.215 55C289.298 56.875 286.986 58.6667 284.277 60.375L299.152 86.875L271.027 92.375L261.402 65.75L253.652 66L252.527 92H225.652C225.861 82.5 226.048 73.0417 226.215 63.625C226.423 54.2083 226.652 44.75 226.902 35.25C226.986 30.4583 227.069 25.7083 227.152 21C227.236 16.2917 227.402 11.5417 227.652 6.75C230.569 5.66667 233.444 4.77083 236.277 4.0625C239.111 3.35417 241.944 2.8125 244.777 2.4375C247.652 2.02083 250.548 1.75 253.465 1.625C256.423 1.45833 259.444 1.375 262.527 1.375C267.277 1.375 271.861 2.04167 276.277 3.375C280.736 4.66667 284.673 6.625 288.09 9.25C291.507 11.875 294.236 15.1458 296.277 19.0625C298.361 22.9792 299.402 27.5417 299.402 32.75ZM271.402 34.75C271.402 33 271.152 31.3958 270.652 29.9375C270.194 28.4792 269.486 27.2292 268.527 26.1875C267.611 25.1042 266.444 24.2708 265.027 23.6875C263.652 23.0625 262.027 22.75 260.152 22.75C259.319 22.75 258.507 22.8125 257.715 22.9375C256.923 23.0208 256.152 23.1667 255.402 23.375L254.402 46.625H255.902C257.694 46.625 259.507 46.3958 261.34 45.9375C263.215 45.4792 264.882 44.7708 266.34 43.8125C267.84 42.8542 269.048 41.625 269.965 40.125C270.923 38.625 271.402 36.8333 271.402 34.75ZM382.62 8.375L348.245 56.375L346.62 95.5H316.995L317.745 56.625L299.87 10.25L331.745 6.25L336.745 33.25L352.62 6.25L382.62 8.375ZM484.867 48.875C484.867 52.6667 484.43 56.3333 483.555 59.875C482.68 63.375 481.409 66.6667 479.742 69.75C478.117 72.8333 476.117 75.6667 473.742 78.25C471.409 80.7917 468.763 82.9792 465.805 84.8125C462.888 86.6458 459.701 88.0833 456.242 89.125C452.784 90.125 449.117 90.625 445.242 90.625C441.492 90.625 437.909 90.1458 434.492 89.1875C431.117 88.2292 427.951 86.8958 424.992 85.1875C422.034 83.4375 419.347 81.3542 416.93 78.9375C414.555 76.4792 412.513 73.7708 410.805 70.8125C409.138 67.8125 407.826 64.6042 406.867 61.1875C405.951 57.7708 405.492 54.2083 405.492 50.5C405.492 46.875 405.93 43.3333 406.805 39.875C407.68 36.375 408.93 33.0833 410.555 30C412.222 26.9167 414.222 24.0833 416.555 21.5C418.888 18.9167 421.492 16.6875 424.367 14.8125C427.284 12.9375 430.43 11.4792 433.805 10.4375C437.18 9.39583 440.742 8.875 444.492 8.875C450.534 8.875 456.034 9.8125 460.992 11.6875C465.992 13.5625 470.242 16.25 473.742 19.75C477.284 23.2083 480.013 27.4167 481.93 32.375C483.888 37.2917 484.867 42.7917 484.867 48.875ZM457.117 50.5C457.117 48.7083 456.847 46.9792 456.305 45.3125C455.805 43.6042 455.055 42.1042 454.055 40.8125C453.055 39.4792 451.805 38.4167 450.305 37.625C448.847 36.7917 447.159 36.375 445.242 36.375C443.284 36.375 441.534 36.7292 439.992 37.4375C438.451 38.1458 437.117 39.125 435.992 40.375C434.909 41.5833 434.076 43.0208 433.492 44.6875C432.909 46.3125 432.617 48.0417 432.617 49.875C432.617 51.625 432.867 53.375 433.367 55.125C433.867 56.875 434.617 58.4583 435.617 59.875C436.617 61.2917 437.847 62.4375 439.305 63.3125C440.805 64.1875 442.534 64.625 444.492 64.625C446.451 64.625 448.201 64.25 449.742 63.5C451.326 62.7083 452.659 61.6667 453.742 60.375C454.826 59.0417 455.659 57.5208 456.242 55.8125C456.826 54.1042 457.117 52.3333 457.117 50.5ZM549.71 2.875C549.46 6.79167 549.231 10.6667 549.022 14.5C548.814 18.3333 548.543 22.2083 548.21 26.125L521.71 27.5V35.375H544.71L543.46 54.75L521.585 55.375L521.71 92.375L490.085 93L492.085 2.875H549.71Z" fill="black"/>
<path d="M114.303 113.777L80.0254 173.367L109.205 225.223L72.4668 236.648L56.6465 200.789L38.0137 236.824L0.0449219 223.113L32.3887 172.137L2.85742 118.523L43.1113 108.855L57.5254 144.188L72.8184 108.855L114.303 113.777ZM199.511 110.262C199.159 115.77 198.837 121.219 198.544 126.609C198.251 132 197.87 137.449 197.402 142.957L160.136 144.891L159.257 155.965H185.448L183.515 183.211L157.148 184.09L156.269 196.922H178.066H193.534C193.183 203.367 192.802 209.783 192.392 216.17C192.04 222.498 191.718 228.855 191.425 235.242L115.663 237L118.476 110.262H199.511ZM307.395 152.273C307.395 156.844 306.985 161.004 306.164 164.754C305.403 168.445 304.172 171.844 302.473 174.949C300.774 178.055 298.577 180.926 295.881 183.562C293.186 186.199 289.934 188.719 286.125 191.121L307.043 228.387L267.493 236.121L253.957 198.68L243.059 199.031L241.477 235.594H203.684C203.977 222.234 204.241 208.934 204.475 195.691C204.768 182.449 205.09 169.148 205.442 155.789C205.559 149.051 205.676 142.371 205.793 135.75C205.911 129.129 206.145 122.449 206.496 115.711C210.598 114.188 214.641 112.928 218.625 111.932C222.61 110.936 226.594 110.174 230.579 109.646C234.621 109.061 238.694 108.68 242.795 108.504C246.955 108.27 251.204 108.152 255.539 108.152C262.219 108.152 268.664 109.09 274.875 110.965C281.145 112.781 286.682 115.535 291.487 119.227C296.291 122.918 300.129 127.518 303 133.025C305.93 138.533 307.395 144.949 307.395 152.273ZM268.02 155.086C268.02 152.625 267.668 150.369 266.965 148.318C266.321 146.268 265.325 144.51 263.977 143.045C262.688 141.521 261.047 140.35 259.055 139.529C257.121 138.65 254.836 138.211 252.2 138.211C251.028 138.211 249.885 138.299 248.772 138.475C247.659 138.592 246.575 138.797 245.52 139.09L244.114 171.785H246.223C248.743 171.785 251.291 171.463 253.87 170.818C256.506 170.174 258.85 169.178 260.901 167.83C263.01 166.482 264.709 164.754 265.998 162.645C267.346 160.535 268.02 158.016 268.02 155.086ZM422.75 174.949C422.75 180.281 422.134 185.438 420.904 190.418C419.673 195.34 417.886 199.969 415.543 204.305C413.257 208.641 410.445 212.625 407.105 216.258C403.824 219.832 400.103 222.908 395.943 225.486C391.841 228.064 387.359 230.086 382.496 231.551C377.632 232.957 372.476 233.66 367.027 233.66C361.754 233.66 356.714 232.986 351.91 231.639C347.164 230.291 342.711 228.416 338.55 226.014C334.39 223.553 330.611 220.623 327.212 217.225C323.873 213.768 321.002 209.959 318.599 205.799C316.255 201.58 314.41 197.068 313.062 192.264C311.773 187.459 311.129 182.449 311.129 177.234C311.129 172.137 311.744 167.156 312.974 162.293C314.205 157.371 315.962 152.742 318.248 148.406C320.591 144.07 323.404 140.086 326.685 136.453C329.966 132.82 333.629 129.686 337.671 127.049C341.773 124.412 346.197 122.361 350.943 120.896C355.689 119.432 360.699 118.699 365.972 118.699C374.468 118.699 382.203 120.018 389.175 122.654C396.207 125.291 402.183 129.07 407.105 133.992C412.086 138.855 415.923 144.773 418.619 151.746C421.373 158.66 422.75 166.395 422.75 174.949ZM383.726 177.234C383.726 174.715 383.345 172.283 382.584 169.939C381.88 167.537 380.826 165.428 379.42 163.611C378.013 161.736 376.255 160.242 374.146 159.129C372.095 157.957 369.722 157.371 367.027 157.371C364.273 157.371 361.812 157.869 359.644 158.865C357.476 159.861 355.601 161.238 354.019 162.996C352.496 164.695 351.324 166.717 350.504 169.061C349.683 171.346 349.273 173.777 349.273 176.355C349.273 178.816 349.625 181.277 350.328 183.738C351.031 186.199 352.086 188.426 353.492 190.418C354.898 192.41 356.627 194.021 358.677 195.252C360.787 196.482 363.218 197.098 365.972 197.098C368.726 197.098 371.187 196.57 373.355 195.516C375.582 194.402 377.457 192.938 378.98 191.121C380.504 189.246 381.675 187.107 382.496 184.705C383.316 182.303 383.726 179.812 383.726 177.234Z" fill="#CD2121"/>
</svg>
