<svg width="124" height="33" viewBox="0 0 124 33" fill="none" xmlns="http://www.w3.org/2000/svg">
<path d="M12.6787 9.82422L21.1334 23.9746H4.22397L12.6787 9.82422Z" fill="#F4F2EB"/>
<path d="M26.719 17.0625L19.7842 5.62699L33.6537 5.62699L26.719 17.0625Z" fill="#F4F2EB"/>
<path d="M110.287 15.6465C110.287 14.3377 110.582 13.1857 111.172 12.1904C111.78 11.195 112.6 10.4208 113.633 9.86786C114.665 9.29645 115.835 9.01074 117.144 9.01074C118.453 9.01074 119.614 9.29645 120.628 9.86786C121.66 10.4208 122.48 11.195 123.089 12.1904C123.697 13.1857 124.001 14.3377 124.001 15.6465C124.001 16.9367 123.697 18.0888 123.089 19.1026C122.48 20.0979 121.66 20.8813 120.628 21.4527C119.614 22.0057 118.453 22.2822 117.144 22.2822C115.835 22.2822 114.665 22.0057 113.633 21.4527C112.6 20.8813 111.78 20.0979 111.172 19.1026C110.582 18.0888 110.287 16.9367 110.287 15.6465ZM113.356 15.6465C113.356 16.4391 113.522 17.1395 113.854 17.7478C114.186 18.3376 114.637 18.8076 115.209 19.1579C115.78 19.4896 116.425 19.6555 117.144 19.6555C117.844 19.6555 118.48 19.4896 119.052 19.1579C119.642 18.8076 120.102 18.3376 120.434 17.7478C120.766 17.1395 120.932 16.4391 120.932 15.6465C120.932 14.8539 120.766 14.1534 120.434 13.5451C120.102 12.9369 119.642 12.4668 119.052 12.1351C118.48 11.8033 117.844 11.6374 117.144 11.6374C116.425 11.6374 115.78 11.8033 115.209 12.1351C114.637 12.4668 114.186 12.9369 113.854 13.5451C113.522 14.1534 113.356 14.8539 113.356 15.6465Z" fill="#F4F2EB"/>
<path d="M96.5996 9.28833H99.8622L103.18 17.5L106.498 9.28833H109.788L103.18 23.168L96.5996 9.28833Z" fill="#F4F2EB"/>
<path d="M82.3945 15.6465C82.3945 14.3377 82.6895 13.1857 83.2793 12.1904C83.8876 11.195 84.7078 10.4208 85.74 9.86786C86.7723 9.29645 87.9427 9.01074 89.2514 9.01074C90.5601 9.01074 91.7214 9.29645 92.7352 9.86786C93.7674 10.4208 94.5877 11.195 95.1959 12.1904C95.8042 13.1857 96.1083 14.3377 96.1083 15.6465C96.1083 16.9367 95.8042 18.0888 95.1959 19.1026C94.5877 20.0979 93.7674 20.8813 92.7352 21.4527C91.7214 22.0057 90.5601 22.2822 89.2514 22.2822C87.9427 22.2822 86.7723 22.0057 85.74 21.4527C84.7078 20.8813 83.8876 20.0979 83.2793 19.1026C82.6895 18.0888 82.3945 16.9367 82.3945 15.6465ZM85.4635 15.6465C85.4635 16.4391 85.6294 17.1395 85.9612 17.7478C86.293 18.3376 86.7446 18.8076 87.316 19.1579C87.8874 19.4896 88.5326 19.6555 89.2514 19.6555C89.9519 19.6555 90.5878 19.4896 91.1592 19.1579C91.7491 18.8076 92.2099 18.3376 92.5416 17.7478C92.8734 17.1395 93.0393 16.4391 93.0393 15.6465C93.0393 14.8539 92.8734 14.1534 92.5416 13.5451C92.2099 12.9369 91.7491 12.4668 91.1592 12.1351C90.5878 11.8033 89.9519 11.6374 89.2514 11.6374C88.5326 11.6374 87.8874 11.8033 87.316 12.1351C86.7446 12.4668 86.293 12.9369 85.9612 13.5451C85.6294 14.1534 85.4635 14.8539 85.4635 15.6465Z" fill="#F4F2EB"/>
<path d="M76.479 14.264C76.479 13.324 76.2854 12.6143 75.8983 12.1351C75.5113 11.6558 74.9122 11.4162 74.1012 11.4162C73.5482 11.4162 73.0597 11.536 72.6358 11.7756C72.2118 11.9968 71.8801 12.3286 71.6404 12.771C71.4008 13.1949 71.281 13.6926 71.281 14.264V22.0057H68.2949V9.28723H71.281V11.2503C71.6865 10.4946 72.2026 9.93237 72.8293 9.56372C73.4745 9.19507 74.2394 9.01074 75.1242 9.01074C76.5619 9.01074 77.6587 9.45312 78.4144 10.3379C79.1701 11.2042 79.548 12.4023 79.548 13.9322V22.0057H76.479V14.264Z" fill="#F4F2EB"/>
<path d="M57.1481 17.8307C57.5536 18.2731 57.9592 18.6602 58.3647 18.992C58.7886 19.3053 59.2126 19.5449 59.6365 19.7108C60.0605 19.8583 60.4844 19.932 60.9084 19.932C61.4429 19.932 61.8576 19.8122 62.1526 19.5726C62.4659 19.333 62.6226 19.0012 62.6226 18.5772C62.6226 18.2086 62.5028 17.8952 62.2632 17.6372C62.0235 17.3607 61.6917 17.1303 61.2678 16.946C60.8439 16.7432 60.3462 16.5404 59.7748 16.3377C59.2034 16.1165 58.6319 15.8584 58.0605 15.5635C57.5076 15.2502 57.0467 14.8446 56.6781 14.347C56.3279 13.8493 56.1528 13.2226 56.1528 12.4668C56.1528 11.6927 56.3463 11.0475 56.7334 10.5314C57.1389 10.0153 57.6735 9.63745 58.337 9.39783C59.019 9.13977 59.7471 9.01074 60.5213 9.01074C61.2217 9.01074 61.8761 9.11212 62.4843 9.31488C63.1111 9.51764 63.6732 9.78491 64.1709 10.1167C64.6686 10.4485 65.0926 10.8263 65.4428 11.2503L63.7838 13.0198C63.3599 12.5221 62.853 12.1166 62.2632 11.8033C61.6733 11.4899 61.065 11.3332 60.4383 11.3332C60.0144 11.3332 59.6642 11.4254 59.3877 11.6097C59.1112 11.7941 58.9729 12.0613 58.9729 12.4115C58.9729 12.7065 59.0928 12.9737 59.3324 13.2134C59.5904 13.4346 59.9222 13.6373 60.3277 13.8216C60.7517 14.006 61.2217 14.1995 61.7378 14.4023C62.4383 14.6788 63.0834 14.9829 63.6732 15.3147C64.2631 15.6465 64.7331 16.052 65.0833 16.5312C65.452 17.0105 65.6363 17.6372 65.6363 18.4113C65.6363 19.6095 65.2216 20.5772 64.3921 21.3145C63.5811 22.0333 62.4751 22.3928 61.0743 22.3928C60.2079 22.3928 59.4061 22.2637 58.6688 22.0057C57.9499 21.7292 57.314 21.379 56.761 20.955C56.2265 20.5127 55.7749 20.0518 55.4062 19.5726L57.1481 17.8307Z" fill="#F4F2EB"/>
<path d="M40.0254 15.6465C40.0254 14.3377 40.3203 13.1857 40.9102 12.1904C41.5184 11.195 42.3387 10.4208 43.3709 9.86786C44.4031 9.29645 45.5736 9.01074 46.8823 9.01074C48.191 9.01074 49.3523 9.29645 50.3661 9.86786C51.3983 10.4208 52.2185 11.195 52.8268 12.1904C53.4351 13.1857 53.7392 14.3377 53.7392 15.6465C53.7392 16.9367 53.4351 18.0888 52.8268 19.1026C52.2185 20.0979 51.3983 20.8813 50.3661 21.4527C49.3523 22.0057 48.191 22.2822 46.8823 22.2822C45.5736 22.2822 44.4031 22.0057 43.3709 21.4527C42.3387 20.8813 41.5184 20.0979 40.9102 19.1026C40.3203 18.0888 40.0254 16.9367 40.0254 15.6465ZM43.0944 15.6465C43.0944 16.4391 43.2603 17.1395 43.5921 17.7478C43.9239 18.3376 44.3755 18.8076 44.9469 19.1579C45.5183 19.4896 46.1634 19.6555 46.8823 19.6555C47.5827 19.6555 48.2187 19.4896 48.7901 19.1579C49.3799 18.8076 49.8407 18.3376 50.1725 17.7478C50.5043 17.1395 50.6702 16.4391 50.6702 15.6465C50.6702 14.8539 50.5043 14.1534 50.1725 13.5451C49.8407 12.9369 49.3799 12.4668 48.7901 12.1351C48.2187 11.8033 47.5827 11.6374 46.8823 11.6374C46.1634 11.6374 45.5183 11.8033 44.9469 12.1351C44.3755 12.4668 43.9239 12.9369 43.5921 13.5451C43.2603 14.1534 43.0944 14.8539 43.0944 15.6465Z" fill="#F4F2EB"/>
</svg>
